<?xml version="1.0" standalone="no"?>
<!DOCTYPE svg PUBLIC "-//W3C//DTD SVG 1.1//EN" "http://www.w3.org/Graphics/SVG/1.1/DTD/svg11.dtd" >
<svg>
<metadata>
Created by FontForge 20120731 at Fri Jul  1 17:12:28 2016
 By ,,,
Clarendon (Classic). Copyright (1993), SPSL Corp.
</metadata>
<defs>
<font id="SPSLClarendonC-Italic" horiz-adv-x="658" >
  <font-face 
    font-family="SPSL ClarendonC"
    font-weight="400"
    font-style="italic"
    font-stretch="normal"
    units-per-em="1000"
    panose-1="0 0 5 0 0 0 0 0 0 0"
    ascent="769"
    descent="-231"
    x-height="458"
    cap-height="673"
    bbox="-90 -231 1350 862"
    underline-thickness="56"
    underline-position="-146"
    slope="-10"
    unicode-range="U+0020-FB02"
  />
<missing-glyph horiz-adv-x="360" 
 />
    <glyph glyph-name=".notdef" horiz-adv-x="360" 
 />
    <glyph glyph-name=".null" horiz-adv-x="0" 
 />
    <glyph glyph-name="nonmarkingreturn" horiz-adv-x="333" 
 />
    <glyph glyph-name="space" unicode=" " horiz-adv-x="360" 
 />
    <glyph glyph-name="space" unicode="&#xa0;" horiz-adv-x="360" 
 />
    <glyph glyph-name="exclam" unicode="!" horiz-adv-x="334" 
d="M190 183h-56v20q0 119 -20.5 225.5t-20.5 136.5q0 63 19 94t50 31q32 0 51.5 -31t19.5 -94q0 -30 -21.5 -136.5t-21.5 -225.5v-20zM93 47q0 28 20 44t50 16t50 -16t20 -44t-20 -44t-50 -16t-50 16t-20 44z" />
    <glyph glyph-name="quotedbl" unicode="&#x22;" horiz-adv-x="314" 
d="M120 691v-233h-70v233h70zM264 691v-233h-70v233h70z" />
    <glyph glyph-name="numbersign" unicode="#" horiz-adv-x="944" 
d="M574 0h-65l34 165h-208l-34 -165h-65l34 165h-174l12 63h174l41 197h-174l12 63h175l32 164h67l-34 -164h208l34 164h65l-34 -164h174l-12 -63h-174l-41 -197h174l-12 -63h-175zM556 228l41 197h-209l-41 -197h209z" />
    <glyph glyph-name="dollar" unicode="$" horiz-adv-x="798" 
d="M325 691h59v-62q75 -4 134 -38.5t59 -88.5q0 -30 -17 -49.5t-47 -19.5q-27 0 -47 16t-20 39q0 20 12 34t31 19v5q-35 27 -105 30v-181q41 -10 65 -17.5t55 -21.5t48 -30t29 -42t12 -58q0 -77 -57.5 -118t-151.5 -44v-82h-59v82q-37 4 -70 13t-64.5 25t-50 43.5
t-18.5 63.5q0 32 19.5 52.5t47.5 20.5q31 0 48 -16t17 -42q0 -44 -36 -56l1 -9q12 -14 43.5 -22t62.5 -8v185q-100 24 -151.5 59t-51.5 102q0 72 54.5 112.5t148.5 44.5v59zM325 408v168q-52 0 -87 -21.5t-35 -57.5q0 -33 37 -56t85 -33zM384 301v-172q129 5 129 83
q0 62 -129 89z" />
    <glyph glyph-name="percent" unicode="%" horiz-adv-x="1060" 
d="M93 510q0 73 49 124.5t118 51.5q56 0 100 -36q86 -47 191 -47q110 0 181 64l20 19h67v-22l-534 -664h-83l462 577q-59 -21 -134 -21q-56 0 -118 26q14 -34 14 -72q0 -72 -48.5 -123.5t-117.5 -51.5t-118 51.5t-49 123.5zM167 510q0 -68 26 -103t67 -35t66.5 34.5
t25.5 103.5t-25.5 103.5t-66.5 34.5t-67 -34.5t-26 -103.5zM673 163q0 -69 26 -103.5t67 -34.5t66.5 34.5t25.5 103.5t-25.5 103.5t-66.5 34.5t-67 -34.5t-26 -103.5zM599 163q0 72 49 123.5t118 51.5t117.5 -51.5t48.5 -123.5q0 -73 -48.5 -124t-117.5 -51t-118 51t-49 124
z" />
    <glyph glyph-name="ampersand" unicode="&#x26;" horiz-adv-x="907" 
d="M780 228h64v-45q0 -99 -35 -148t-115 -49q-66 0 -156 71q-120 -75 -238 -75q-122 0 -189 50t-67 144q0 68 49.5 117t136.5 92q-48 66 -48 139q0 66 46 108t116 42q68 0 116.5 -38t48.5 -90q0 -59 -37.5 -95.5t-114.5 -71.5q99 -127 196 -207q54 57 54 127q0 16 -14.5 25
t-29.5 9h-54v65h293v-65h-13q-54 0 -73 -9.5t-26 -42.5q-8 -31 -30 -75.5t-53 -78.5q63 -58 104 -58q69 0 69 128v31zM266 335q-107 -54 -107 -144q0 -61 49 -100.5t109 -39.5q101 0 164 52q-122 107 -215 232zM321 426q101 46 101 121q0 28 -18.5 47.5t-44.5 19.5
q-39 0 -62 -20t-23 -58q0 -54 47 -110z" />
    <glyph glyph-name="quotesingle" unicode="'" horiz-adv-x="170" 
d="M120 691v-233h-70v233h70z" />
    <glyph glyph-name="parenleft" unicode="(" horiz-adv-x="389" 
d="M266 691h90q-159 -215 -159 -461t159 -461h-90q-73 73 -119 169.5t-59.5 165t-13.5 126.5t13.5 126.5t59.5 165t119 169.5z" />
    <glyph glyph-name="parenright" unicode=")" horiz-adv-x="389" 
d="M123 -231h-90q159 215 159 461t-159 461h90q73 -73 119 -169.5t59.5 -165t13.5 -126.5t-13.5 -126.5t-59.5 -165t-119 -169.5z" />
    <glyph glyph-name="asterisk" unicode="*" horiz-adv-x="590" 
d="M270 489l19 -7l1 1v14q0 34 -25 67.5t-25 53.5q0 18 15.5 36.5t44.5 18.5q23 0 41.5 -15t18.5 -40t-25 -57t-25 -64v-14l1 -1l21 8q19 8 33.5 23t21.5 28t19.5 23t30.5 10q22 0 41.5 -16t19.5 -47q0 -24 -15.5 -40.5t-42.5 -16.5q-13 0 -38.5 9.5t-42.5 9.5
q-12 0 -42 -10v-1l15 -18q15 -19 45.5 -29t49.5 -22.5t19 -42.5q0 -25 -17 -42.5t-46 -17.5q-26 0 -41 21t-15 47v13v14t-1 12.5t-2.5 14t-5.5 13t-9 14.5l-8 11h-2l-8 -11q-20 -28 -20 -83q0 -66 -56 -66q-24 0 -43 18t-19 44q0 22 14 36t32 19t39 14.5t31 22.5l14 18v1
q-28 10 -44 10q-18 0 -44.5 -9.5t-39.5 -9.5q-21 0 -37 17.5t-16 40.5q0 24 16.5 43t40.5 19q26 0 41.5 -16.5t31 -38.5t38.5 -30z" />
    <glyph glyph-name="plus" unicode="+" horiz-adv-x="750" 
d="M34 346h306v260h70v-260h306v-70h-306v-260h-70v260h-306v70z" />
    <glyph glyph-name="comma" unicode="," horiz-adv-x="250" 
d="M103 -143l-33 35q25 21 44.5 49.5t19.5 45.5q0 7 -4.5 9t-18.5 2q-28 0 -44.5 19t-16.5 40q0 63 74 63q41 0 57.5 -26t16.5 -61q0 -90 -95 -176z" />
    <glyph glyph-name="hyphen" unicode="-" horiz-adv-x="397" 
d="M69 229v68h259v-68h-259z" />
    <glyph glyph-name="hyphen" unicode="&#xad;" horiz-adv-x="397" 
d="M69 229v68h259v-68h-259z" />
    <glyph glyph-name="period" unicode="." horiz-adv-x="250" 
d="M50 47q0 28 20 44t50 16t50 -16t20 -44t-20 -44t-50 -16t-50 16t-20 44z" />
    <glyph glyph-name="slash" unicode="/" horiz-adv-x="570" 
d="M76 -46h-64l484 719h65z" />
    <glyph glyph-name="zero" unicode="0" 
d="M329 -16q-125 0 -203.5 88t-78.5 264q0 177 78 263.5t204 86.5t204 -86.5t78 -263.5q0 -176 -78.5 -264t-203.5 -88zM329 42q30 0 53.5 6.5t46 26t37 51.5t23.5 85t9 125q0 90 -12.5 150t-37.5 90t-52.5 41t-66.5 11t-66.5 -11t-52.5 -41t-37.5 -90t-12.5 -150
q0 -72 9 -125t23.5 -85t37 -51.5t46 -26t53.5 -6.5z" />
    <glyph glyph-name="one" unicode="1" 
d="M537 0h-407v65h97q60 0 60 55v420h-157v60h89q56 0 80.5 20t28.5 57h64v-556q0 -17 3 -27.5t16 -19.5t38 -9h88v-65z" />
    <glyph glyph-name="two" unicode="2" 
d="M548 234h58v-15q0 -102 -41 -164t-120 -62q-55 0 -140.5 38t-128.5 38q-37 0 -60 -20t-23 -49h-60v21q0 66 24.5 116t63.5 80.5t86.5 55t95 44.5t86.5 42t63.5 55.5t24.5 77.5q0 63 -59 99.5t-127 36.5q-65 0 -118 -30t-53 -55q0 -1 8.5 -3t21 -6t25 -11.5t21 -23
t8.5 -37.5q0 -24 -20.5 -43t-54.5 -19q-35 0 -59 26t-24 68q0 81 77 136.5t191 55.5q49 0 96.5 -11.5t89.5 -34.5t67.5 -63.5t25.5 -92.5q0 -50 -22.5 -89t-60 -63t-83 -43t-94 -35.5t-91 -34.5t-76 -45.5t-46.5 -63.5q42 33 127 33q42 0 106.5 -24.5t110.5 -24.5
q84 0 84 128v12z" />
    <glyph glyph-name="three" unicode="3" horiz-adv-x="649" 
d="M261 316v58h22q25 0 43.5 1.5t45.5 8.5t44.5 19.5t30.5 37t13 59.5q0 51 -47.5 89.5t-115.5 38.5q-54 0 -97.5 -18t-43.5 -37q0 -4 17 -11t33.5 -20.5t16.5 -35.5q0 -34 -21.5 -52.5t-56.5 -18.5q-32 0 -54 24.5t-22 58.5q0 71 75 119.5t173 48.5q120 0 190 -55.5
t70 -130.5q0 -60 -39 -98t-107 -53v-5q73 -13 116 -51.5t43 -103.5q0 -84 -70 -144.5t-195 -60.5q-117 0 -198 50.5t-81 136.5q0 40 26 68t62 28q31 0 52 -19t21 -46q0 -25 -13 -41t-29 -20.5t-29 -8t-13 -6.5q0 -22 53.5 -53t111.5 -31q33 0 63.5 7.5t59 23.5t46 47.5
t17.5 74.5q0 32 -15 56t-36 36t-50 19t-49 8.5t-41 1.5h-22z" />
    <glyph glyph-name="four" unicode="4" horiz-adv-x="639" 
d="M601 265v-65h-135v-106q0 -29 28 -29h88v-65h-378v65h123q14 0 24 11.5t10 25.5v98h-361v59l387 414h79v-408h135zM361 265v302h-3l-276 -299v-3h279z" />
    <glyph glyph-name="five" unicode="5" horiz-adv-x="635" 
d="M150 585l-10 -208q70 57 176 57q63 0 113 -16.5t78.5 -41t47.5 -55.5t25.5 -56t6.5 -47q0 -97 -81.5 -165.5t-196.5 -68.5q-110 0 -186.5 42t-76.5 117q0 28 11 47t28 26t28.5 9.5t22.5 2.5q27 0 45 -19t18 -49q0 -25 -11.5 -39.5t-23 -20.5t-11.5 -11q0 -18 38.5 -32.5
t105.5 -14.5q73 0 125 51t52 122q0 58 -47.5 109.5t-132.5 51.5q-109 0 -166 -75l-52 10l18 375q6 -1 34.5 -7t36 -7.5t30.5 -6t34.5 -5.5t31 -3.5t37 -3t37.5 -0.5q132 0 226 28q-11 -62 -60 -90q-44 -25 -177 -25q-64 0 -174 19z" />
    <glyph glyph-name="six" unicode="6" 
d="M149 330v1q42 45 88.5 65t117.5 20q44 0 86.5 -11t82 -33.5t64 -64t24.5 -95.5q0 -57 -24.5 -102t-65 -72t-89 -40.5t-99.5 -13.5q-122 0 -207.5 84.5t-85.5 242.5q0 73 16.5 136t52 118.5t102 88t156.5 32.5q92 0 156.5 -38.5t64.5 -113.5q0 -34 -20 -55t-51 -21
q-35 0 -55.5 17.5t-20.5 45.5t13.5 43.5t27 20.5t13.5 7q0 15 -39 26.5t-83 11.5q-58 0 -102.5 -23t-70.5 -63t-39 -88t-13 -102v-24zM155 197q13 -69 65.5 -112t117.5 -43q73 0 118.5 40.5t45.5 121.5q0 67 -50 110.5t-122 43.5q-75 0 -122.5 -42t-52.5 -119z" />
    <glyph glyph-name="seven" unicode="7" horiz-adv-x="619" 
d="M115 398h-65v275h65v-70q47 76 132 76q43 0 117 -23.5t101 -23.5q34 0 50 10t23 31h46v-10q0 -54 -43 -126.5t-126 -184.5q-142 -191 -142 -336v-16h-120v16q0 65 28 126.5t81 136.5q32 45 117.5 143t115.5 149q-42 -21 -85 -21q-49 0 -102 16.5t-82 16.5
q-45 0 -78 -37.5t-33 -101.5v-46z" />
    <glyph glyph-name="eight" unicode="8" 
d="M443 364v-5q167 -75 167 -171q0 -86 -68.5 -145t-224.5 -59q-116 0 -192.5 49t-76.5 133q0 41 13 71.5t38.5 51.5t48 33t57.5 25v3q-124 71 -124 161q0 80 68 127.5t179 47.5q114 0 183 -43.5t69 -110.5q0 -68 -33 -101.5t-104 -66.5zM373 393q102 36 102 126
q0 48 -38 80t-113 32q-60 0 -101 -23.5t-41 -69.5q0 -50 47.5 -81t143.5 -64zM291 313q-83 -33 -110.5 -66.5t-27.5 -82.5q0 -47 43 -84.5t141 -37.5q75 0 120 30.5t45 79.5q0 39 -26.5 65t-87.5 54q-2 1 -97 42z" />
    <glyph glyph-name="nine" unicode="9" 
d="M499 337q-78 -75 -206 -75q-36 0 -69.5 6t-67 21.5t-58 38.5t-40 59t-15.5 82q0 71 41.5 122t101 73t128.5 22q57 0 108 -17.5t93 -53t67 -96t25 -139.5v-15q0 -59 -9 -111t-32 -102.5t-59 -87t-94 -58.5t-132 -22q-89 0 -155.5 42.5t-66.5 112.5q0 37 22.5 59.5
t55.5 22.5t53 -21t20 -48q0 -26 -14 -40.5t-28.5 -19.5t-14.5 -8q0 -18 39 -30t81 -12q113 0 169.5 77t56.5 200v18zM493 476q-10 71 -58 111.5t-114 40.5q-69 0 -118.5 -40t-49.5 -119q0 -67 47.5 -108t118.5 -41q75 0 122.5 39.5t51.5 116.5z" />
    <glyph glyph-name="colon" unicode=":" horiz-adv-x="250" 
d="M50 47q0 28 20 44t50 16t50 -16t20 -44t-20 -44t-50 -16t-50 16t-20 44zM50 398q0 28 20 44t50 16t50 -16t20 -44t-20 -44t-50 -16t-50 16t-20 44z" />
    <glyph glyph-name="semicolon" unicode=";" horiz-adv-x="250" 
d="M103 -143l-33 35q25 21 44.5 49.5t19.5 45.5q0 7 -4.5 9t-18.5 2q-28 0 -44.5 19t-16.5 40q0 63 74 63q41 0 57.5 -26t16.5 -61q0 -90 -95 -176zM58 398q0 28 20 44t50 16t50 -16t20 -44t-20 -44t-50 -16t-50 16t-20 44z" />
    <glyph glyph-name="less" unicode="&#x3c;" 
d="M30 323l593 227v-72l-448 -167l448 -167v-72l-593 227v24z" />
    <glyph glyph-name="equal" unicode="=" horiz-adv-x="668" 
d="M38 428h593v-70h-593v70zM38 267h593v-70h-593v70z" />
    <glyph glyph-name="greater" unicode="&#x3e;" 
d="M628 299l-593 -227v72l448 167l-448 167v72l593 -227v-24z" />
    <glyph glyph-name="question" unicode="?" horiz-adv-x="597" 
d="M300 183h-56v19q0 61 19 108t46.5 74.5t55 50t46.5 46.5t19 51q0 47 -46 74t-108 27q-41 0 -80.5 -17.5t-39.5 -31.5q0 -7 11.5 -10t25 -5t25 -17.5t11.5 -44.5q0 -28 -23 -46.5t-53 -18.5q-26 0 -51 20.5t-25 66.5q0 62 59 112t151 50q140 0 199.5 -50t59.5 -124
q0 -49 -25.5 -81t-61.5 -50.5t-72 -38.5t-61.5 -57t-25.5 -92v-15zM208 47q0 28 20 44t50 16t50 -16t20 -44t-20 -44t-50 -16t-50 16t-20 44z" />
    <glyph glyph-name="at" unicode="@" horiz-adv-x="1094" 
d="M758 561l98 -37l-86 -242q-21 -61 -21 -75q0 -48 46 -48q70 0 136 71.5t66 178.5q0 137 -116.5 233t-322.5 96q-99 0 -183.5 -33.5t-140 -88.5t-87 -125t-31.5 -143q0 -179 124 -286.5t322 -107.5q194 0 293 81l39 -41q-153 -98 -329 -98q-234 0 -376.5 124t-142.5 329
q0 83 36 163t100 143.5t162 102t212 38.5q134 0 245.5 -45.5t180 -135t68.5 -206.5q0 -115 -79 -207.5t-192 -92.5q-100 0 -135 62q-74 -52 -160 -52t-134.5 53.5t-48.5 132.5q0 111 87.5 193t216.5 82q33 0 72.5 -15t62.5 -50zM637 235l73 220q-6 31 -37 50t-70 19
q-71 0 -130 -66t-59 -160q0 -121 94 -121q81 0 129 58z" />
    <glyph glyph-name="A" unicode="A" horiz-adv-x="817" 
d="M360 673h104l232 -514q19 -43 38 -66t44 -23h19v-70h-302v70h65q35 0 35 25q0 14 -9 32l-41 91h-326l-45 -96q-9 -18 -9 -29q0 -23 31 -23h86v-70h-274v70h17q23 0 41 12.5t25.5 25t16.5 31.5zM387 574l-135 -286h264z" />
    <glyph glyph-name="B" unicode="B" horiz-adv-x="797" 
d="M167 121v431q0 24 -12.5 37.5t-47.5 13.5h-60v70h422q259 0 259 -172q0 -56 -31 -94.5t-81 -58.5q63 -16 104 -56.5t41 -99.5q0 -192 -269 -192h-445v70h59q61 0 61 51zM283 603v-222h202q62 0 94.5 31t32.5 89q0 102 -143 102h-186zM283 311v-241h209q150 0 150 123
q0 58 -45 88t-112 30h-202z" />
    <glyph glyph-name="C" unicode="C" horiz-adv-x="790" 
d="M646 254h70q0 -125 -79.5 -198.5t-219.5 -73.5q-169 0 -270 102.5t-101 252.5q0 155 106.5 254.5t264.5 99.5q74 0 134.5 -31.5t94.5 -76.5v90h70v-265h-70q0 97 -71.5 155t-157.5 58q-113 0 -180.5 -79.5t-67.5 -204.5q0 -116 65 -200.5t183 -84.5q56 0 99 14t67 35
t39 49.5t19.5 53t4.5 50.5z" />
    <glyph glyph-name="D" unicode="D" horiz-adv-x="843" 
d="M167 121v431q0 24 -12.5 37.5t-47.5 13.5h-60v70h370q173 0 276.5 -86t103.5 -239q0 -156 -100 -252t-252 -96h-398v70h59q61 0 61 51zM283 603v-533h150q125 0 183 74t58 202q0 61 -17 108t-42.5 74.5t-60 45t-65.5 23.5t-62 6h-144z" />
    <glyph glyph-name="E" unicode="E" horiz-adv-x="830" 
d="M47 673h704v-275h-70v78q0 57 -32 92t-100 35h-266v-222h107q41 0 57 13t16 51v61h70v-326h-70v70q0 39 -14.5 50t-57.5 11h-108v-241h219q105 0 142 31.5t37 123.5v57h70v-282h-704v70h59q61 0 61 51v431q0 24 -12.5 37.5t-47.5 13.5h-60v70z" />
    <glyph glyph-name="F" unicode="F" horiz-adv-x="770" 
d="M47 673h693v-275h-70v78q0 57 -32 92t-100 35h-255v-222h107q41 0 57 13t16 51v61h70v-326h-70v70q0 39 -14.5 50t-57.5 11h-108v-190q0 -51 60 -51h60v-70h-356v70h59q61 0 61 51v431q0 24 -12.5 37.5t-47.5 13.5h-60v70z" />
    <glyph glyph-name="G" unicode="G" horiz-adv-x="847" 
d="M468 337h354v-70h-47q-59 0 -59 -51v-216h-70v84q-84 -102 -229 -102q-170 0 -270.5 102.5t-100.5 252.5q0 155 106.5 254.5t264.5 99.5q74 0 134.5 -31.5t94.5 -76.5v90h70v-265h-70q0 97 -71.5 155t-157.5 58q-113 0 -180.5 -79.5t-67.5 -204.5q0 -116 65 -200.5
t183 -84.5q84 0 146.5 40.5t62.5 110.5q0 41 -18.5 52.5t-67.5 11.5h-72v70z" />
    <glyph glyph-name="H" unicode="H" horiz-adv-x="936" 
d="M403 0h-356v70h59q61 0 61 51v431q0 24 -12.5 37.5t-47.5 13.5h-60v70h356v-70h-60q-60 0 -60 -51v-171h370v171q0 24 -12.5 37.5t-47.5 13.5h-60v70h356v-70h-60q-60 0 -60 -51v-431q0 -51 60 -51h60v-70h-356v70h59q61 0 61 51v190h-370v-190q0 -51 60 -51h60v-70z" />
    <glyph glyph-name="I" unicode="I" horiz-adv-x="450" 
d="M47 673h356v-70h-60q-60 0 -60 -51v-431q0 -51 60 -51h60v-70h-356v70h59q61 0 61 51v431q0 24 -12.5 37.5t-47.5 13.5h-60v70z" />
    <glyph glyph-name="J" unicode="J" horiz-adv-x="600" 
d="M203 673h356v-70h-60q-60 0 -60 -51v-368q0 -100 -59 -151t-165 -51q-81 0 -142 40.5t-61 109.5q0 38 24 63t64 25q33 0 53.5 -21t20.5 -52q0 -23 -14.5 -41t-37.5 -25q25 -29 92 -29q57 0 83 32t26 79v389q0 24 -12.5 37.5t-47.5 13.5h-60v70z" />
    <glyph glyph-name="K" unicode="K" horiz-adv-x="881" 
d="M47 673h356v-70h-60q-60 0 -60 -51v-235l279 237q21 18 21 34q0 15 -22 15h-70v70h336v-70h-44q-51 0 -89 -31l-203 -172l270 -284q44 -46 90 -46h21v-70h-365v70h95q22 0 22 15q0 14 -26 40l-196 201l-119 -99v-106q0 -51 60 -51h60v-70h-356v70h59q61 0 61 51v431
q0 24 -12.5 37.5t-47.5 13.5h-60v70z" />
    <glyph glyph-name="L" unicode="L" horiz-adv-x="738" 
d="M46 673h356v-70h-60q-60 0 -60 -51v-482h180q105 0 142 31.5t37 123.5v57h70v-282h-665v70h59q61 0 61 51v431q0 24 -12.5 37.5t-47.5 13.5h-60v70z" />
    <glyph glyph-name="M" unicode="M" horiz-adv-x="1052" 
d="M757 673h248v-70h-60q-60 0 -60 -51v-431q0 -51 60 -51h60v-70h-356v70h59q61 0 61 51v401h-5l-224 -522h-71l-228 522h-5v-401q0 -51 60 -51h60v-70h-310v70h59q61 0 61 51v431q0 24 -12.5 37.5t-47.5 13.5h-60v70h248l232 -535h4z" />
    <glyph glyph-name="N" unicode="N" horiz-adv-x="910" 
d="M44 673h226l415 -517h3v396q0 24 -12.5 37.5t-47.5 13.5h-60v70h310v-70h-60q-60 0 -60 -51v-552h-93l-428 536h-3v-415q0 -51 60 -51h60v-70h-310v70h59q61 0 61 51v431q0 24 -12.5 37.5t-47.5 13.5h-60v70z" />
    <glyph glyph-name="O" unicode="O" horiz-adv-x="834" 
d="M417 691q164 0 267.5 -96t103.5 -258q0 -158 -105 -256.5t-266 -98.5q-170 0 -270.5 102.5t-100.5 252.5q0 155 107.5 254.5t263.5 99.5zM417 621q-113 0 -180.5 -79.5t-67.5 -204.5q0 -116 65 -200.5t183 -84.5q61 0 109.5 24.5t78 65.5t45 91t15.5 104q0 128 -63.5 206
t-184.5 78z" />
    <glyph glyph-name="P" unicode="P" horiz-adv-x="756" 
d="M403 0h-356v70h59q61 0 61 51v431q0 24 -12.5 37.5t-47.5 13.5h-60v70h432q122 0 183 -47t61 -131q0 -88 -61.5 -138.5t-182.5 -50.5h-196v-185q0 -51 60 -51h60v-70zM283 603v-227h187q70 0 100.5 30.5t30.5 88.5q0 108 -123 108h-195z" />
    <glyph glyph-name="Q" unicode="Q" horiz-adv-x="869" 
d="M640 45q22 -27 38.5 -38.5t38.5 -11.5q34 0 52 26t18 71v34h69v-52q0 -77 -40 -129t-109 -52q-100 0 -171 107q-46 -18 -118 -18q-170 0 -270.5 102.5t-100.5 251.5q0 156 107.5 255.5t263.5 99.5q164 0 267 -96t103 -259q0 -94 -37 -163t-111 -128zM280 87
q-13 19 -13 50q0 40 37.5 68.5t90.5 28.5q54 0 98.5 -30.5t90.5 -89.5q43 31 62.5 92t19.5 130q0 129 -63.5 207t-184.5 78q-113 0 -181 -79.5t-68 -205.5q0 -84 31 -150t80 -99zM499 64q-61 92 -113 92q-23 0 -39.5 -15t-16.5 -35q0 -54 88 -54q46 0 81 12z" />
    <glyph glyph-name="R" unicode="R" horiz-adv-x="835" 
d="M167 121v431q0 24 -12.5 37.5t-47.5 13.5h-60v70h419q139 0 200.5 -45.5t61.5 -135.5q0 -56 -38 -101t-123 -57q63 -28 89 -70t26 -108v-58q0 -38 28 -38q30 0 30 28v111h70v-121q0 -42 -31.5 -67t-81.5 -25q-63 0 -97 33t-34 94v52q0 34 -7.5 63t-33.5 53.5t-67 24.5
h-175v-186q0 -50 61 -50h60v-70h-357v70h59q61 0 61 51zM283 603v-228h186q70 0 103.5 32.5t33.5 88.5q0 52 -29.5 79.5t-111.5 27.5h-182z" />
    <glyph glyph-name="S" unicode="S" horiz-adv-x="700" 
d="M620 419h-69v41q0 63 -77.5 112.5t-162.5 49.5q-60 0 -104.5 -29.5t-44.5 -82.5q0 -34 27.5 -55.5t71 -32.5t96.5 -20t106 -22t96.5 -33.5t71 -59.5t27.5 -95q0 -96 -79.5 -153t-189.5 -57q-78 0 -148 32.5t-106 83.5v-98h-69v260h69v-21q0 -64 78 -126t173 -62
q62 0 111.5 31.5t49.5 97.5q0 33 -27 54.5t-70.5 32t-95.5 19t-104.5 20.5t-96 31t-70.5 57t-27 92q0 93 73.5 149t181.5 56q127 0 240 -95v77h69v-254z" />
    <glyph glyph-name="T" unicode="T" horiz-adv-x="760" 
d="M27 673h706v-275h-70v78q0 57 -32 92t-100 35h-93v-482q0 -51 60 -51h60v-70h-356v70h59q61 0 61 51v482h-93q-68 0 -100 -35t-32 -92v-78h-70v275z" />
    <glyph glyph-name="U" unicode="U" horiz-adv-x="868" 
d="M38 673h356v-70h-60q-60 0 -60 -51v-333q0 -72 47 -119t137 -47q85 0 136 46t51 134v319q0 24 -12.5 37.5t-47.5 13.5h-60v70h310v-70h-60q-60 0 -60 -51v-301q0 -66 -17.5 -115.5t-44 -78t-64 -46t-71.5 -23.5t-73 -6q-133 0 -210 63.5t-77 187.5v319q0 24 -12.5 37.5
t-47.5 13.5h-60v70z" />
    <glyph glyph-name="V" unicode="V" horiz-adv-x="742" 
d="M0 673h291v-70h-57q-31 0 -31 -28q0 -18 9 -40l179 -419h3l183 427q11 24 11 41q0 19 -35 19h-77v70h273v-70h-19q-32 0 -48 -16t-35 -60l-229 -527h-92l-230 532q-16 38 -33 54.5t-45 16.5h-18v70z" />
    <glyph glyph-name="W" unicode="W" horiz-adv-x="1047" 
d="M0 673h282v-70h-58q-32 0 -32 -22q0 -19 14 -57l135 -386h4l122 407q10 35 10 42q0 16 -46 16h-42v70h320v-70h-55q-32 0 -32 -18q0 -19 12 -51l140 -396h4l118 409q7 25 7 38q0 12 -7 15t-23 3h-57v70h233v-70h-17q-34 0 -46 -10.5t-23 -50.5l-158 -542h-93l-180 513
l-3 13l-2 -13l-155 -513h-95l-193 548q-11 32 -23.5 43.5t-40.5 11.5h-20v70z" />
    <glyph glyph-name="X" unicode="X" horiz-adv-x="881" 
d="M44 673h369v-70h-82q-26 0 -26 -18q0 -8 15 -25l139 -149l142 151q13 13 13 25q0 16 -19 16h-75v70h310v-70h-31q-68 0 -104 -37l-194 -201l237 -255q38 -40 94 -40h28v-70h-379v70h102q29 0 29 13q0 10 -30 43l-160 172q-21 -21 -57 -61l-113 -125q-21 -22 -21 -31
q0 -11 17 -11h107v-70h-330v70h31q52 0 87 30q19 16 79 79l157 164l-208 222q-35 38 -101 38h-26v70z" />
    <glyph glyph-name="Y" unicode="Y" horiz-adv-x="687" 
d="M-2 673h330v-70h-75q-31 0 -31 -13q0 -11 17 -35l136 -186l2 -4l2 4l127 186q13 19 13 32q0 11 -6 13.5t-32 2.5h-67v70h282v-70h-31q-27 0 -44 -11t-34 -35l-182 -263v-173q0 -51 61 -51h60v-70h-357v70h60q61 0 61 51v185l-185 246q-22 30 -39.5 40.5t-49.5 10.5h-18
v70z" />
    <glyph glyph-name="Z" unicode="Z" horiz-adv-x="756" 
d="M64 673h629v-88l-477 -511v-4h239q105 0 142 31.5t37 123.5v57h70v-282h-650v61l506 538v4h-294q-68 0 -100 -35t-32 -92v-78h-70v275z" />
    <glyph glyph-name="bracketleft" unicode="[" horiz-adv-x="400" 
d="M350 -193h-288v866h288v-70h-172v-726h172v-70z" />
    <glyph glyph-name="backslash" unicode="\" horiz-adv-x="568" 
d="M466 -194l-412 849l47 17l412 -850z" />
    <glyph glyph-name="bracketright" unicode="]" horiz-adv-x="400" 
d="M50 673h288v-866h-288v70h172v726h-172v70z" />
    <glyph glyph-name="asciicircum" unicode="^" horiz-adv-x="464" 
d="M232 595l-112 -98h-116l228 197l228 -197h-116z" />
    <glyph glyph-name="underscore" unicode="_" horiz-adv-x="640" 
d="M-10 -194v70h660v-70h-660z" />
    <glyph glyph-name="grave" unicode="`" horiz-adv-x="325" 
d="M289 512l-12 -13l-120 81q-5 4 -32.5 18.5t-39 26.5t-11.5 28q0 12 10 24q12 14 28 14q11 0 23.5 -8.5t20.5 -17.5t20.5 -24.5t17.5 -21.5z" />
    <glyph glyph-name="a" unicode="a" horiz-adv-x="613" 
d="M165 391q33 -24 33 -54q0 -25 -19 -42t-46 -17q-30 0 -47 19.5t-17 51.5q0 60 58 92t142 32q93 0 153 -33.5t60 -105.5v-256q0 -34 29 -34q24 0 24 34v81h58v-81q0 -37 -23 -65.5t-78 -28.5q-75 0 -101 77q-71 -77 -183 -77q-70 0 -118 30.5t-48 90.5q0 68 47 99t128 45
q8 1 30 4.5t33 6t29.5 6.5t28.5 9.5t21 13.5t16 19.5t5 25.5q0 43 -37.5 65t-86.5 22q-62 0 -91 -30zM380 164v78q-25 -18 -68.5 -29t-76 -16t-57.5 -25t-25 -57q0 -31 25.5 -51t58.5 -20q58 0 100.5 34t42.5 86z" />
    <glyph glyph-name="b" unicode="b" horiz-adv-x="614" 
d="M-4 686h191v-236q0 -2 -1 -11t-2 -20.5t-1 -18.5q67 73 168 73q102 0 163 -68.5t61 -174.5q0 -110 -62 -177.5t-170 -67.5q-53 0 -99.5 21.5t-73.5 60.5l-28 -67h-57v571q0 31 -9.5 43t-39.5 12h-40v60zM181 230q4 -88 45 -136.5t101 -48.5q67 0 102 53.5t35 131.5
q0 72 -36 127.5t-102 55.5q-62 0 -101 -51.5t-44 -131.5z" />
    <glyph glyph-name="c" unicode="c" horiz-adv-x="556" 
d="M442 159h65q-7 -86 -68 -130.5t-140 -44.5q-120 0 -190 66.5t-70 178.5q0 110 71.5 177t188.5 67q84 0 148.5 -44t64.5 -120q0 -32 -16.5 -53t-49.5 -21q-25 0 -43.5 18t-18.5 42q0 22 13 34.5t25.5 17.5t12.5 7q0 23 -36 41.5t-92 18.5q-77 0 -117 -52t-40 -133
q0 -73 39.5 -129.5t109.5 -56.5q52 0 93.5 29.5t49.5 86.5z" />
    <glyph glyph-name="d" unicode="d" horiz-adv-x="646" 
d="M338 686h191v-571q0 -31 9.5 -43t39.5 -12h40v-60h-189v61h-2q-60 -77 -168 -77q-99 0 -159.5 70t-60.5 176q0 61 21 110t54.5 76.5t71 42t73.5 14.5q46 0 83 -13.5t54.5 -28t35.5 -36.5h2l-7 46v130q0 31 -9.5 43t-39.5 12h-40v60zM433 230q-4 82 -47 132.5t-96 50.5
q-64 0 -102 -51t-38 -132q0 -82 36 -134t107 -52q62 0 98.5 49.5t41.5 136.5z" />
    <glyph glyph-name="e" unicode="e" horiz-adv-x="576" 
d="M459 159h64q-21 -82 -82 -128.5t-148 -46.5q-117 0 -185.5 69t-68.5 176q0 62 23.5 111t61.5 77t82 42t90 14q106 0 171 -68t65 -175v-8h-381v-20q0 -64 48 -111.5t107 -47.5t98.5 31t54.5 85zM151 280h272q-4 67 -40 100.5t-89 33.5q-125 0 -143 -134z" />
    <glyph glyph-name="f" unicode="f" horiz-adv-x="404" 
d="M361 398h-128v-283q0 -31 9.5 -43t39.5 -12h79v-60h-319v60h40q30 0 39.5 12t9.5 43v283h-89v60h89v62q0 79 45.5 124t124.5 45q55 0 95.5 -32t40.5 -74q0 -32 -16.5 -53t-49.5 -21q-25 0 -43.5 18t-18.5 42q0 14 9.5 24.5t18.5 16.5t9 8q0 5 -13 9t-32 4
q-33 0 -51.5 -18t-18.5 -50q0 -9 1 -29t1 -29v-47h128v-60z" />
    <glyph glyph-name="g" unicode="g" horiz-adv-x="638" 
d="M576 -66q0 -58 -45.5 -97t-106 -53.5t-130.5 -14.5q-53 0 -101 6.5t-91 21t-68.5 42t-25.5 64.5q0 63 83 88q-23 6 -48 28t-25 50q0 70 92 106q-71 45 -71 124t71.5 126.5t170.5 47.5q108 0 183 -54q37 63 97 63q38 0 60.5 -22t22.5 -58q0 -25 -15.5 -43t-42.5 -18
q-22 0 -35.5 13.5t-13.5 35.5q0 11 5 17.5t10 8.5l5 3q0 10 -17 10q-11 0 -23 -14.5t-16 -33.5q25 -37 25 -82q0 -78 -72.5 -124.5t-171.5 -46.5q-74 0 -132 25q-40 -17 -40 -38q0 -47 77 -47h202q187 0 187 -134zM282 414q-59 0 -95.5 -28t-36.5 -87q0 -56 37 -84.5
t95 -28.5q59 0 96 28.5t37 84.5q0 60 -36.5 87.5t-96.5 27.5zM479 -82q0 40 -30 50t-132 10h-129q-87 0 -87 -60q0 -90 192 -90q29 0 57.5 4t59.5 13t50 28t19 45z" />
    <glyph glyph-name="h" unicode="h" horiz-adv-x="694" 
d="M308 0h-280v60h40q30 0 39.5 12t9.5 43v456q0 31 -9.5 43t-39.5 12h-40v60h191v-294q98 81 192 81q18 0 36 -2t43 -11.5t43 -24.5t31 -43.5t13 -67.5v-209q0 -31 9.5 -43t39.5 -12h40v-60h-280v60h40q30 0 39.5 12t9.5 43v209q0 36 -21.5 60t-65.5 24q-82 0 -169 -93
v-200q0 -31 9.5 -43t39.5 -12h40v-60z" />
    <glyph glyph-name="i" unicode="i" horiz-adv-x="350" 
d="M42 458h191v-343q0 -31 9.5 -43t39.5 -12h40v-60h-280v60h40q30 0 39.5 12t9.5 43v228q0 31 -9.5 43t-39.5 12h-40v60zM108 613q0 28 20 44t50 16t50 -16t20 -44t-20 -44t-50 -16t-50 16t-20 44z" />
    <glyph glyph-name="j" unicode="j" horiz-adv-x="331" 
d="M114 613q0 28 20 44t50 16t50 -16t20 -44t-20 -44t-50 -16t-50 16t-20 44zM49 458h191v-528q0 -69 -39 -115t-122 -46q-69 0 -119 33t-50 81q0 38 18.5 59t49.5 21q28 0 47.5 -15.5t19.5 -44.5q0 -51 -45 -58q21 -18 60 -18q43 0 60.5 25.5t17.5 87.5v403q0 31 -9.5 43
t-39.5 12h-40v60z" />
    <glyph glyph-name="k" unicode="k" horiz-adv-x="700" 
d="M28 686h191v-449l188 134q17 12 17 20q0 7 -29 7h-39v60h291v-60h-43q-62 0 -89 -20l-114 -80l175 -206q27 -32 74 -32h22v-60h-279v60h31q29 0 29 14q0 9 -16 28l-115 142l-103 -72v-57q0 -31 9.5 -43t39.5 -12h40v-60h-280v60h40q30 0 39.5 12t9.5 43v456q0 31 -9.5 43
t-39.5 12h-40v60z" />
    <glyph glyph-name="l" unicode="l" horiz-adv-x="336" 
d="M28 686h191v-571q0 -31 9.5 -43t39.5 -12h40v-60h-280v60h40q30 0 39.5 12t9.5 43v456q0 31 -9.5 43t-39.5 12h-40v60z" />
    <glyph glyph-name="m" unicode="m" horiz-adv-x="1030" 
d="M322 0h-280v60h40q30 0 39.5 12t9.5 43v228q0 31 -9.5 43t-39.5 12h-40v60h191v-71q90 85 181 85q114 0 151 -90q49 45 93.5 67.5t104.5 22.5q66 0 108 -39t42 -100v-218q0 -31 9.5 -43t39.5 -12h40v-60h-280v60h40q30 0 39.5 12t9.5 43v209q0 39 -24 61t-58 22
q-74 0 -156 -88v-204q0 -31 9.5 -43t39.5 -12h40v-60h-280v60h40q30 0 39.5 12t9.5 43v204q0 88 -84 88q-77 0 -154 -88v-204q0 -31 9.5 -43t39.5 -12h40v-60z" />
    <glyph glyph-name="n" unicode="n" horiz-adv-x="708" 
d="M322 0h-280v60h40q30 0 39.5 12t9.5 43v228q0 31 -9.5 43t-39.5 12h-40v60h191v-66q98 81 192 81q18 0 36 -2.5t43 -11.5t43 -24t31 -44t13 -67v-209q0 -31 9.5 -43t39.5 -12h40v-60h-280v60h40q30 0 39.5 12t9.5 43v209q0 36 -21.5 60t-65.5 24q-82 0 -169 -93v-200
q0 -31 9.5 -43t39.5 -12h40v-60z" />
    <glyph glyph-name="o" unicode="o" horiz-adv-x="592" 
d="M296 -16q-108 0 -182.5 70.5t-74.5 175.5t74.5 174t182.5 69t182.5 -69t74.5 -174t-74.5 -175.5t-182.5 -70.5zM296 43q64 0 105 48t41 139q0 90 -41 137t-105 47t-105 -47t-41 -137q0 -91 41 -139t105 -48z" />
    <glyph glyph-name="p" unicode="p" horiz-adv-x="646" 
d="M308 -212h-280v60h40q30 0 39.5 12t9.5 43v440q0 31 -9.5 43t-39.5 12h-40v60h191l-4 -60h4q31 38 70 56.5t98 18.5q99 0 159.5 -70t60.5 -176q0 -61 -20.5 -109.5t-53.5 -76.5t-70.5 -42.5t-75.5 -14.5q-106 0 -172 77l4 -44v-114q0 -31 9.5 -43t39.5 -12h40v-60z
M215 227q4 -83 45.5 -133t94.5 -50q69 0 105 50t36 133q0 81 -37 133.5t-107 52.5q-55 0 -94 -51.5t-43 -134.5z" />
    <glyph glyph-name="q" unicode="q" horiz-adv-x="614" 
d="M606 -212h-268v60h40q30 0 39.5 12t9.5 43v113q0 3 2 19t2 23q-71 -74 -166 -74q-98 0 -162 69t-64 172q0 111 65 179.5t173 68.5q102 0 167 -82l51 67h34v-555q0 -31 9.5 -43t39.5 -12h28v-60zM433 227q0 90 -39 138t-101 48q-64 0 -103.5 -55t-39.5 -131
q0 -72 36 -127.5t102 -55.5q62 0 101 52t44 131z" />
    <glyph glyph-name="r" unicode="r" horiz-adv-x="508" 
d="M322 0h-280v60h40q30 0 39.5 12t9.5 43v228q0 31 -9.5 43t-39.5 12h-40v60h183v-64q43 44 78 61t81 17t74 -24.5t28 -66.5q0 -29 -18.5 -51.5t-48.5 -22.5q-23 0 -41 13t-18 34q0 42 37 49q-7 11 -37 11q-63 0 -127 -101v-198q0 -31 9.5 -43t39.5 -12h40v-60z" />
    <glyph glyph-name="s" unicode="s" horiz-adv-x="543" 
d="M48 187h58v-13q0 -45 63 -88t131 -43q39 0 72.5 17.5t33.5 50.5q0 29 -27 46t-67.5 22t-87.5 14t-87.5 20t-67.5 42t-27 79q0 62 51 100.5t134 38.5q55 0 107.5 -20t81.5 -54v59h58v-173h-48q-23 59 -74 94t-126 35q-33 0 -62 -17.5t-29 -44.5q0 -33 37.5 -49t91.5 -22.5
t108 -17t91.5 -43.5t37.5 -90q0 -72 -58 -109t-143 -37q-66 0 -110.5 19.5t-83.5 58.5v-62h-58v187z" />
    <glyph glyph-name="t" unicode="t" horiz-adv-x="425" 
d="M141 615h67v-157h147v-60h-147v-294q0 -25 15.5 -43t43.5 -18q26 0 42 19.5t16 42.5v54h58v-46q0 -56 -36.5 -92.5t-101.5 -36.5t-102 32t-37 99v283h-91v57q63 2 94.5 41t31.5 99v20z" />
    <glyph glyph-name="u" unicode="u" horiz-adv-x="694" 
d="M666 0h-191l3 66h-3q-99 -82 -192 -82q-24 0 -47.5 5t-52.5 19t-47.5 46.5t-18.5 79.5v209q0 31 -9.5 43t-39.5 12h-40v60h191v-324q0 -36 22 -60.5t66 -24.5q80 0 168 94v200q0 31 -9.5 43t-39.5 12h-40v60h191v-343q0 -31 9.5 -43t39.5 -12h40v-60z" />
    <glyph glyph-name="v" unicode="v" horiz-adv-x="582" 
d="M10 458h271v-60h-66q-27 0 -27 -13t9 -31l119 -247h4l126 252q5 10 5 15q0 24 -34 24h-58v60h223v-60h-16q-20 0 -34.5 -12t-30.5 -43l-179 -349h-54l-172 349q-16 32 -32 43.5t-41 11.5h-13v60z" />
    <glyph glyph-name="w" unicode="w" horiz-adv-x="852" 
d="M10 458h238v-60h-49q-11 0 -17.5 -5.5t-6.5 -12.5q0 -15 11 -41l93 -230h4l97 238q8 19 8 32q0 19 -37 19h-33v60h275v-60h-44q-27 0 -27 -20q0 -13 8 -33l98 -236h3l103 250q6 13 6 25q0 14 -36 14h-43v60h191v-60h-5q-23 0 -34.5 -11t-21.5 -35l-150 -358h-65l-141 333
h-5l-139 -333h-65l-145 348q-24 56 -61 56h-10v60z" />
    <glyph glyph-name="x" unicode="x" horiz-adv-x="668" 
d="M28 0v60h20q48 0 99 46l134 121l-132 135q-23 23 -40.5 29.5t-50.5 6.5h-18v60h279v-60h-40q-22 0 -22 -9q0 -10 13 -23l82 -86l86 80q17 16 17 28q0 10 -33 10h-25v60h233v-60h-26q-39 0 -80 -36l-133 -117l134 -136q49 -49 103 -49h12v-60h-282v60h37q32 0 32 10
q0 11 -20 31l-88 91l-93 -91q-19 -19 -19 -28q0 -13 27 -13h37v-60h-243z" />
    <glyph glyph-name="y" unicode="y" horiz-adv-x="596" 
d="M10 458h285v-60h-51q-40 0 -40 -17q0 -20 10 -40l116 -233h4l119 234q13 28 13 39t-7 14t-28 3h-58v60h223v-60h-13q-27 0 -38.5 -11t-31.5 -50l-238 -461q-55 -107 -153 -107q-50 0 -85.5 32t-35.5 79q0 38 20 59.5t55 21.5q30 0 50 -16t20 -42q0 -43 -48 -62
q6 -16 36 -16q51 0 92 79l52 98l-178 349q-15 30 -27 38.5t-43 8.5h-20v60z" />
    <glyph glyph-name="z" unicode="z" horiz-adv-x="537" 
d="M437 195h58v-195h-467v71l336 324v3h-158q-109 0 -109 -96v-47h-58v203h456v-66l-339 -329v-3h175q58 0 82 20t24 69v46z" />
    <glyph glyph-name="braceleft" unicode="{" horiz-adv-x="402" 
d="M353 -172v-40h-17q-46 0 -80.5 12t-53.5 30t-30.5 42t-14.5 43t-3 39q0 14 7.5 63.5t7.5 60.5q0 48 -9 80t-27 46.5t-32.5 19.5t-37.5 7v40q23 2 37.5 7t32.5 19.5t27 46.5t9 80q0 11 -7.5 65.5t-7.5 68.5q0 20 3 38t14.5 40.5t30.5 39t53.5 27.5t80.5 11h17v-40h-17
q-30 0 -56.5 -22t-26.5 -64q0 -22 4.5 -68.5t4.5 -58.5q0 -85 -29 -133.5t-111 -76.5q82 -28 111 -76.5t29 -133.5q0 -12 -4.5 -58.5t-4.5 -68.5q0 -42 26.5 -64t56.5 -22h17z" />
    <glyph glyph-name="bar" unicode="|" horiz-adv-x="199" 
d="M65 -212v926h69v-926h-69z" />
    <glyph glyph-name="braceright" unicode="}" horiz-adv-x="402" 
d="M49 674v40h17q46 0 80.5 -12.5t53.5 -30.5t30.5 -42t14.5 -43.5t3 -39.5q0 -14 -7.5 -62.5t-7.5 -59.5q0 -48 9 -80t27 -46.5t32.5 -19.5t37.5 -7v-40q-23 -2 -37.5 -7t-32.5 -19.5t-27 -46.5t-9 -80q0 -11 7.5 -61.5t7.5 -64.5q0 -26 -6.5 -50t-23.5 -52t-56 -45
t-96 -17h-17v40h17q30 0 56.5 22t26.5 64q0 22 -4.5 68.5t-4.5 58.5q0 85 29 133.5t111 76.5q-82 28 -111 76.5t-29 133.5q0 12 4.5 58.5t4.5 68.5q0 42 -26.5 64t-56.5 22h-17z" />
    <glyph glyph-name="asciitilde" unicode="~" horiz-adv-x="593" 
d="M121 264h-65q0 48 44 80t112 32q36 0 107 -23.5t105 -23.5q20 0 34 14t14 33h65q0 -49 -41 -80.5t-106 -31.5q-35 0 -111 23.5t-112 23.5q-19 0 -32.5 -13.5t-13.5 -33.5z" />
    <glyph glyph-name="currency" unicode="&#xa4;" horiz-adv-x="982" 
d="M74 56l154 132q-47 74 -47 158t47 158l-154 132l80 70l144 -125q83 67 193 67t194 -67l145 125l79 -70l-155 -133q47 -74 47 -157q0 -80 -47 -157l155 -133l-79 -70l-144 125q-83 -67 -195 -67q-110 0 -193 67l-144 -125zM271 346q0 -93 64.5 -158.5t155.5 -65.5
t155.5 65.5t64.5 158.5t-64.5 158.5t-155.5 65.5t-155.5 -65.5t-64.5 -158.5z" />
    <glyph glyph-name="brokenbar" unicode="&#xa6;" horiz-adv-x="339" 
d="M112 -212v343h115v-343h-115zM112 330v343h115v-343h-115z" />
    <glyph glyph-name="section" unicode="&#xa7;" horiz-adv-x="595" 
d="M148 448q-29 42 -29 97q0 24 11.5 49.5t34.5 50t64.5 40.5t94.5 16q73 0 131.5 -35.5t58.5 -87.5q0 -32 -19 -55.5t-46 -23.5q-38 0 -60 16t-22 44q0 20 9.5 30t19 13.5t9.5 8.5q0 4 -8 10t-26.5 11t-40.5 5q-41 0 -72 -20t-31 -57q0 -18 6.5 -33t27 -32.5t35 -28
t53.5 -36.5l87 -58q112 -74 112 -159q0 -43 -27.5 -83.5t-65.5 -68.5q40 -48 40 -112q0 -67 -63.5 -109.5t-144.5 -42.5q-100 0 -162.5 43t-62.5 90q0 34 21.5 59.5t56.5 25.5q37 0 62 -19.5t25 -44.5q0 -23 -8.5 -38.5t-16.5 -21.5t-8 -7q0 -6 9 -11t28 -8.5t45 -3.5
q53 0 83 19.5t30 50.5q0 37 -28.5 66t-107.5 79l-89 58q-117 77 -117 148q0 98 101 166zM185 406q-16 -7 -30.5 -26t-14.5 -35q0 -58 87 -117l80 -54l28 -17.5t38 -25t40 -30.5q41 28 41 58q0 60 -79 114l-86 59q-75 49 -104 74z" />
    <glyph glyph-name="dieresis" unicode="&#xa8;" horiz-adv-x="496" 
d="M309 631q0 28 20 44t50 16t50 -16t20 -44t-20 -44t-50 -16t-50 16t-20 44zM47 631q0 28 20 44t50 16t50 -16t20 -44t-20 -44t-50 -16t-50 16t-20 44z" />
    <glyph glyph-name="copyright" unicode="&#xa9;" horiz-adv-x="956" 
d="M478 742q165 0 281.5 -113.5t116.5 -273.5t-116.5 -273.5t-281.5 -113.5t-281.5 113.5t-116.5 273.5t116.5 273.5t281.5 113.5zM631 476q-7 24 -41.5 43.5t-92.5 19.5q-77 0 -117 -52.5t-40 -133.5q0 -73 39.5 -129.5t109.5 -56.5q52 0 93.5 29.5t49.5 87.5h65
q-7 -86 -67.5 -131t-140.5 -45q-120 0 -190 66.5t-70 178.5q0 110 71.5 177t188.5 67q85 0 149 -44.5t64 -123.5q0 -25 -19 -44.5t-48 -19.5q-30 0 -49 14.5t-19 38.5q0 58 64 58zM478 700q-145 0 -246.5 -101t-101.5 -244t101.5 -244t246.5 -101t246.5 101t101.5 244
t-101.5 244t-246.5 101z" />
    <glyph glyph-name="guillemotleft" unicode="&#xab;" horiz-adv-x="660" 
d="M525 349l-83 -128l84 -131l-41 -22l-146 152l151 150zM422 412l-142 -192l137 -189l-39 -22l-244 212l247 216z" />
    <glyph glyph-name="logicalnot" unicode="&#xac;" horiz-adv-x="794" 
d="M93 406h605v-169h-70v99h-535v70z" />
    <glyph glyph-name="registered" unicode="&#xae;" horiz-adv-x="718" 
d="M60 556q0 120 87.5 205t211.5 85q123 0 210.5 -85t87.5 -205t-87.5 -205t-210.5 -85q-124 0 -211.5 85t-87.5 205zM197 672v21h167q68 0 100 -20t32 -48q0 -25 -24 -45t-78 -24v-3q68 -11 68 -70q0 -37 23 -37q20 0 20 30v14h24v-16q0 -64 -61 -64q-33 0 -47.5 17
t-14.5 60q0 21 -6.5 34.5t-18.5 19t-21.5 7t-23.5 1.5h-34v-95q0 -16 17 -16h31v-21h-153v21h32q18 0 18 13v211q0 10 -13 10h-37zM302 672v-102h41q89 0 89 55q0 18 -17 32.5t-57 14.5h-56zM102 556q0 -106 75 -180.5t182 -74.5q106 0 181 74.5t75 180.5q0 105 -75 179.5
t-181 74.5t-181.5 -74.5t-75.5 -179.5z" />
    <glyph glyph-name="macron" unicode="&#xaf;" horiz-adv-x="397" 
d="M69 561v68h259v-68h-259z" />
    <glyph glyph-name="macron" unicode="&#x2c9;" horiz-adv-x="397" 
d="M69 561v68h259v-68h-259z" />
    <glyph glyph-name="degree" unicode="&#xb0;" horiz-adv-x="282" 
d="M72 591q0 -26 20.5 -44t48.5 -18t48.5 18t20.5 44t-20.5 44t-48.5 18t-48.5 -18t-20.5 -44zM32 591q0 39 32 67t77 28t77 -28t32 -67t-32 -67t-77 -28t-77 28t-32 67z" />
    <glyph glyph-name="plusminus" unicode="&#xb1;" horiz-adv-x="825" 
d="M72 413h306v260h70v-260h306v-70h-306v-160h-70v160h-306v70zM72 137h682v-70h-682v70z" />
    <glyph glyph-name="acute" unicode="&#xb4;" horiz-adv-x="293" 
d="M51 499l-12 13l95 107q5 6 17.5 21.5t20.5 24.5t20.5 17.5t23.5 8.5q16 0 27 -10t11 -28q0 -12 -9.5 -24t-19 -18.5t-28.5 -17.5t-25 -15z" />
    <glyph glyph-name="mu" unicode="&#xb5;" horiz-adv-x="694" 
d="M666 0h-191l3 66h-3q-99 -82 -192 -82q-29 0 -60.5 12.5t-46.5 34.5q0 -61 21.5 -117.5t21.5 -73.5q0 -34 -20 -52.5t-51 -18.5t-49 24t-18 64q0 22 1.5 44t2.5 37.5t5.5 43.5t6.5 41t9.5 53.5t10.5 57.5v209q0 31 -9.5 43t-39.5 12h-40v60h191v-324q0 -36 22 -60.5
t66 -24.5q80 0 168 94v200q0 31 -9.5 43t-39.5 12h-40v60h191v-343q0 -31 9.5 -43t39.5 -12h40v-60z" />
    <glyph glyph-name="mu" unicode="&#x3bc;" horiz-adv-x="694" 
d="M666 0h-191l3 66h-3q-99 -82 -192 -82q-29 0 -60.5 12.5t-46.5 34.5q0 -61 21.5 -117.5t21.5 -73.5q0 -34 -20 -52.5t-51 -18.5t-49 24t-18 64q0 22 1.5 44t2.5 37.5t5.5 43.5t6.5 41t9.5 53.5t10.5 57.5v209q0 31 -9.5 43t-39.5 12h-40v60h191v-324q0 -36 22 -60.5
t66 -24.5q80 0 168 94v200q0 31 -9.5 43t-39.5 12h-40v60h191v-343q0 -31 9.5 -43t39.5 -12h40v-60z" />
    <glyph glyph-name="paragraph" unicode="&#xb6;" horiz-adv-x="649" 
d="M399 -212v815h-72v-815h-204v70h59q61 0 61 51v416q-99 0 -163.5 46t-64.5 131q0 81 62.5 126t165.5 45h359v-70h-60q-60 0 -60 -51v-643q0 -51 60 -51h60v-70h-203zM243 395v208q-43 0 -74 -25.5t-31 -74.5q0 -108 105 -108z" />
    <glyph glyph-name="periodcentered" unicode="&#xb7;" horiz-adv-x="248" 
d="M50 347q0 29 21.5 49.5t52.5 20.5t52.5 -20.5t21.5 -49.5t-21.5 -49.5t-52.5 -20.5t-52.5 20.5t-21.5 49.5z" />
    <glyph glyph-name="periodcentered" unicode="&#x2219;" horiz-adv-x="248" 
d="M50 347q0 29 21.5 49.5t52.5 20.5t52.5 -20.5t21.5 -49.5t-21.5 -49.5t-52.5 -20.5t-52.5 20.5t-21.5 49.5z" />
    <glyph glyph-name="cedilla" unicode="&#xb8;" horiz-adv-x="284" 
d="M144 0l-14 -42l18 1q41 0 70 -19t29 -56q0 -42 -29 -69t-76 -27q-34 0 -68.5 15.5t-34.5 50.5q0 13 9.5 21.5t23.5 8.5t21 -8.5t9 -19t11.5 -19t26.5 -8.5q21 0 34 14.5t13 36.5q0 44 -59 44q-29 0 -52 -10l26 86h42z" />
    <glyph glyph-name="guillemotright" unicode="&#xbb;" horiz-adv-x="660" 
d="M136 94l82 130l-84 131l42 22l145 -152l-151 -150zM238 33l142 192l-136 189l40 22l242 -212l-247 -216z" />
    <glyph glyph-name="dotlessi" unicode="&#x131;" horiz-adv-x="350" 
d="M42 458h191v-343q0 -31 9.5 -43t39.5 -12h40v-60h-280v60h40q30 0 39.5 12t9.5 43v228q0 31 -9.5 43t-39.5 12h-40v60z" />
    <glyph glyph-name="Lslash" unicode="&#x141;" horiz-adv-x="738" 
d="M46 673h356v-70h-60q-60 0 -60 -51v-126l86 46l32 -60l-118 -63v-279h180q105 0 142 31.5t37 123.5v57h70v-282h-665v70h59q61 0 61 51v167l-88 -47l-32 60l120 64v187q0 24 -12.5 37.5t-47.5 13.5h-60v70z" />
    <glyph glyph-name="lslash" unicode="&#x142;" horiz-adv-x="336" 
d="M28 686h191v-269l62 34l27 -53l-89 -47v-236q0 -31 9.5 -43t39.5 -12h40v-60h-280v60h40q30 0 39.5 12t9.5 43v181l-62 -34l-27 53l89 47v209q0 31 -9.5 43t-39.5 12h-40v60z" />
    <glyph glyph-name="OE" unicode="&#x152;" horiz-adv-x="1328" 
d="M417 691q149 0 247 -77v59h585v-275h-70v78q0 57 -32 92t-100 35h-266v-222h107q41 0 57 13t16 51v61h70v-326h-70v70q0 39 -14.5 50t-57.5 11h-108v-241h219q105 0 142 31.5t37 123.5v57h70v-282h-584v65q-97 -83 -248 -83q-170 0 -270.5 102.5t-100.5 252.5
q0 155 107.5 254.5t263.5 99.5zM417 621q-113 0 -180.5 -79.5t-67.5 -204.5q0 -116 65 -200.5t183 -84.5q61 0 109.5 24.5t78 65.5t45 91t15.5 104q0 128 -63.5 206t-184.5 78z" />
    <glyph glyph-name="oe" unicode="&#x153;" horiz-adv-x="979" 
d="M863 163h63q-5 -84 -71.5 -131.5t-158.5 -47.5q-128 0 -202 96q-33 -43 -86 -69.5t-112 -26.5q-108 0 -182.5 70.5t-74.5 175.5t74.5 174t182.5 69q59 0 112 -26t88 -70q38 46 91 71t107 25q117 0 179 -71.5t62 -179.5h-381v-20q0 -64 48 -111.5t107 -47.5q62 0 103 30.5
t51 89.5zM296 43q64 0 105 48t41 139q0 90 -41 137t-105 47t-105 -47t-41 -137q0 -91 41 -139t105 -48zM554 280h275q-3 67 -42 100.5t-90 33.5q-125 0 -143 -134z" />
    <glyph glyph-name="Scaron" unicode="&#x160;" horiz-adv-x="700" 
d="M271 862l89 -63l89 63h98l-187 -161l-187 161h98zM620 419h-69v41q0 63 -77.5 112.5t-162.5 49.5q-60 0 -104.5 -29.5t-44.5 -82.5q0 -34 27.5 -55.5t71 -32.5t96.5 -20t106 -22t96.5 -33.5t71 -59.5t27.5 -95q0 -96 -79.5 -153t-189.5 -57q-78 0 -148 32.5t-106 83.5
v-98h-69v260h69v-21q0 -64 78 -126t173 -62q62 0 111.5 31.5t49.5 97.5q0 33 -27 54.5t-70.5 32t-95.5 19t-104.5 20.5t-96 31t-70.5 57t-27 92q0 93 73.5 149t181.5 56q127 0 240 -95v77h69v-254z" />
    <glyph glyph-name="scaron" unicode="&#x161;" horiz-adv-x="543" 
d="M368 673h98l-187 -161l-187 161h98l89 -67zM48 187h58v-13q0 -45 63 -88t131 -43q39 0 72.5 17.5t33.5 50.5q0 29 -27 46t-67.5 22t-87.5 14t-87.5 20t-67.5 42t-27 79q0 62 51 100.5t134 38.5q55 0 107.5 -20t81.5 -54v59h58v-173h-48q-23 59 -74 94t-126 35
q-33 0 -62 -17.5t-29 -44.5q0 -33 37.5 -49t91.5 -22.5t108 -17t91.5 -43.5t37.5 -90q0 -72 -58 -109t-143 -37q-66 0 -110.5 19.5t-83.5 58.5v-62h-58v187z" />
    <glyph glyph-name="Zcaron" unicode="&#x17d;" horiz-adv-x="756" 
d="M283 862l89 -63l89 63h98l-187 -161l-187 161h98zM64 673h629v-88l-477 -511v-4h239q105 0 142 31.5t37 123.5v57h70v-282h-650v61l506 538v4h-294q-68 0 -100 -35t-32 -92v-78h-70v275z" />
    <glyph glyph-name="zcaron" unicode="&#x17e;" horiz-adv-x="537" 
d="M358 673h98l-187 -161l-187 161h98l89 -67zM437 195h58v-195h-467v71l336 324v3h-158q-109 0 -109 -96v-47h-58v203h456v-66l-339 -329v-3h175q58 0 82 20t24 69v46z" />
    <glyph glyph-name="circumflex" unicode="&#x2c6;" horiz-adv-x="458" 
d="M318 530l-89 67l-89 -67h-98l187 161l187 -161h-98z" />
    <glyph glyph-name="caron" unicode="&#x2c7;" horiz-adv-x="512" 
d="M256 592l128 99h100l-228 -197l-228 197h100z" />
    <glyph glyph-name="breve" unicode="&#x2d8;" horiz-adv-x="512" 
d="M128 691q57 -99 128 -99q80 0 128 99h100q-80 -184 -228 -184q-133 0 -228 184h100z" />
    <glyph glyph-name="dotaccent" unicode="&#x2d9;" horiz-adv-x="244" 
d="M47 620q0 29 21.5 49.5t52.5 20.5t52.5 -20.5t21.5 -49.5t-21.5 -49.5t-52.5 -20.5t-52.5 20.5t-21.5 49.5z" />
    <glyph glyph-name="ring" unicode="&#x2da;" horiz-adv-x="304" 
d="M152 549q19 0 32 12.5t13 29.5t-13 29.5t-32 12.5t-32 -12.5t-13 -29.5t13 -29.5t32 -12.5zM152 491q-46 0 -78 29.5t-32 70.5t32 70.5t78 29.5t78 -29.5t32 -70.5t-32 -70.5t-78 -29.5z" />
    <glyph glyph-name="ogonek" unicode="&#x2db;" horiz-adv-x="267" 
d="M166 0h34q-63 -54 -82 -80.5t-19 -49.5q0 -41 41 -41q37 0 73 36l16 -21q-62 -56 -113 -56q-31 0 -54 17t-23 48q0 27 24.5 58.5t102.5 88.5z" />
    <glyph glyph-name="tilde" unicode="&#x2dc;" horiz-adv-x="565" 
d="M42 552h65q0 30 19.5 47t44.5 17q33 -1 104.5 -39.5t105.5 -38.5q64 0 103 43.5t39 95.5h-65q0 -29 -19.5 -46.5t-43.5 -17.5q-29 0 -96.5 39t-113.5 39q-64 0 -103.5 -43.5t-39.5 -95.5z" />
    <glyph glyph-name="hungarumlaut" unicode="&#x2dd;" horiz-adv-x="515" 
d="M51 499l-12 13l95 107q5 6 17.5 21.5t20.5 24.5t20.5 17.5t23.5 8.5q16 0 27 -10t11 -28q0 -12 -9.5 -24t-19 -18.5t-28.5 -17.5t-25 -15zM273 499l-12 13l95 107q5 6 17.5 21.5t20.5 24.5t20.5 17.5t23.5 8.5q16 0 27 -10t11 -28q0 -12 -9.5 -24t-19 -18.5t-28.5 -17.5
t-25 -15z" />
    <glyph glyph-name="afii10023" unicode="&#x401;" horiz-adv-x="830" 
d="M47 673h704v-275h-70v78q0 57 -32 92t-100 35h-266v-222h107q41 0 57 13t16 51v61h70v-326h-70v70q0 39 -14.5 50t-57.5 11h-108v-241h219q105 0 142 31.5t37 123.5v57h70v-282h-704v70h59q61 0 61 51v431q0 24 -12.5 37.5t-47.5 13.5h-60v70zM489 786q0 28 20 44t50 16
t50 -16t20 -44t-20 -44t-50 -16t-50 16t-20 44zM227 786q0 28 20 44t50 16t50 -16t20 -44t-20 -44t-50 -16t-50 16t-20 44z" />
    <glyph glyph-name="afii10051" unicode="&#x402;" horiz-adv-x="930" 
d="M336 121v482h-93q-68 0 -100 -35t-32 -92v-78h-70v275h706v-215h-70v18q0 57 -32 92t-100 35h-93v-242q119 45 218 45q103 0 167.5 -43.5t64.5 -128.5v-50q0 -100 -59 -151t-165 -51q-81 0 -142 40.5t-61 109.5q0 38 24 63t64 25q74 0 74 -73q0 -23 -14.5 -41t-37.5 -25
q25 -29 92 -29q57 0 83 32t26 79v79q0 42 -40.5 68t-107.5 26q-97 0 -186 -44v-292h-236v70h59q61 0 61 51z" />
    <glyph glyph-name="afii10052" unicode="&#x403;" horiz-adv-x="741" 
d="M260 724v13l126 80q72 45 98 45q15 0 26 -11.5t11 -26.5q0 -5 -1 -10t-4.5 -8.5l-6.5 -6.5t-9 -6t-10.5 -5t-13.5 -4.5t-14.5 -4t-17 -4.5t-18.5 -5zM47 673h639v-275h-70v78q0 57 -32 92t-100 35h-201v-482q0 -51 60 -51h60v-70h-356v70h59q61 0 61 51v431
q0 24 -12.5 37.5t-47.5 13.5h-60v70z" />
    <glyph glyph-name="afii10053" unicode="&#x404;" horiz-adv-x="779" 
d="M646 254h70q0 -125 -79.5 -198.5t-219.5 -73.5q-169 0 -270 102.5t-101 252.5q0 155 107.5 254.5t263.5 99.5q71 0 132 -32t97 -76v90h70v-265h-70q0 97 -71 155.5t-158 58.5q-102 0 -168 -66.5t-78 -174.5h351v-70h-352q7 -108 71.5 -184t175.5 -76q56 0 99 14t67 35
t39 50t19.5 53.5t4.5 50.5z" />
    <glyph glyph-name="afii10054" unicode="&#x405;" horiz-adv-x="705" 
d="M620 419h-69v41q0 63 -77.5 112.5t-162.5 49.5q-60 0 -104.5 -29.5t-44.5 -82.5q0 -34 27.5 -55.5t71 -32.5t96.5 -20t106 -22t96.5 -33.5t71 -59.5t27.5 -95q0 -96 -79.5 -153t-189.5 -57q-78 0 -148 32.5t-106 83.5v-98h-69v260h69v-21q0 -64 78 -126t173 -62
q62 0 111.5 31.5t49.5 97.5q0 33 -27 54.5t-70.5 32t-95.5 19t-104.5 20.5t-96 31t-70.5 57t-27 92q0 93 73.5 149t181.5 56q127 0 240 -95v77h69v-254z" />
    <glyph glyph-name="afii10055" unicode="&#x406;" horiz-adv-x="450" 
d="M47 673h356v-70h-60q-60 0 -60 -51v-431q0 -51 60 -51h60v-70h-356v70h59q61 0 61 51v431q0 24 -12.5 37.5t-47.5 13.5h-60v70z" />
    <glyph glyph-name="afii10056" unicode="&#x407;" horiz-adv-x="450" 
d="M47 786q0 28 20 44t50 16t50 -16t20 -44t-20 -44t-50 -16t-50 16t-20 44zM263 786q0 28 20 44t50 16t50 -16t20 -44t-20 -44t-50 -16t-50 16t-20 44zM47 673h356v-70h-60q-60 0 -60 -51v-431q0 -51 60 -51h60v-70h-356v70h59q61 0 61 51v431q0 24 -12.5 37.5t-47.5 13.5
h-60v70z" />
    <glyph glyph-name="afii10057" unicode="&#x408;" horiz-adv-x="604" 
d="M203 673h356v-70h-60q-60 0 -60 -51v-368q0 -100 -59 -151t-165 -51q-81 0 -142 40.5t-61 109.5q0 38 24 63t64 25q33 0 53.5 -21t20.5 -52q0 -23 -14.5 -41t-37.5 -25q25 -29 92 -29q57 0 83 32t26 79v389q0 24 -12.5 37.5t-47.5 13.5h-60v70z" />
    <glyph glyph-name="afii10058" unicode="&#x409;" horiz-adv-x="1242" 
d="M157 672h700v-70h-60q-60 0 -60 -51v-170h201q120 0 198 -46.5t78 -142.5q0 -192 -269 -192h-444v70h59q61 0 61 51v481h-201q-23 0 -33.5 -10.5t-10.5 -42.5v-126q0 -259 -49 -348q-50 -90 -154 -90q-68 0 -123 49q-27 24 -38.5 57t-11.5 58q0 35 24.5 60t59.5 25
q33 0 55.5 -18.5t22.5 -45.5t-16.5 -46t-38.5 -19q-11 0 -11 -9q0 -15 21 -30.5t58 -15.5q75 0 103.5 83.5t28.5 277.5v111q0 37 -25.5 58.5t-72.5 21.5h-52v70zM737 311v-241h207q78 0 115 33t37 90t-45 87.5t-113 30.5h-201z" />
    <glyph glyph-name="afii10059" unicode="&#x40a;" horiz-adv-x="1275" 
d="M283 381h370v171q0 24 -12.5 37.5t-47.5 13.5h-60v70h356v-70h-60q-60 0 -60 -51v-171h201q77 0 137 -17.5t100 -61.5t40 -110q0 -192 -269 -192h-445v70h59q61 0 61 51v190h-370v-190q0 -51 60 -51h60v-70h-356v70h59q61 0 61 51v431q0 24 -12.5 37.5t-47.5 13.5h-60v70
h356v-70h-60q-60 0 -60 -51v-171zM769 311v-241h209q77 0 113.5 33t36.5 90q0 58 -44.5 88t-113.5 30h-201z" />
    <glyph glyph-name="afii10060" unicode="&#x40b;" horiz-adv-x="1043" 
d="M47 673h706v-215h-70v18q0 57 -32 92t-100 35h-93v-241q107 44 218 44q102 0 167 -40t65 -115v-130q0 -24 12.5 -37.5t47.5 -13.5h60v-70h-356v70h60q60 0 60 51v135q0 40 -41 60t-107 20q-97 0 -186 -44v-171q0 -24 12.5 -37.5t47.5 -13.5h60v-70h-356v70h60q60 0 60 51
v482h-93q-68 0 -100 -35t-32 -92v-78h-70v275z" />
    <glyph glyph-name="afii10061" unicode="&#x40c;" horiz-adv-x="865" 
d="M394 724v13l126 80q72 45 98 45q15 0 26 -11.5t11 -26.5q0 -5 -1 -10t-4.5 -8.5l-6.5 -6.5t-9 -6t-10.5 -5t-13.5 -4.5t-14.5 -4t-17 -4.5t-18.5 -5zM403 0h-356v70h59q61 0 61 51v431q0 24 -12.5 37.5t-47.5 13.5h-60v70h356v-70h-60q-60 0 -60 -51v-171h92q39 0 67 4
t45.5 14t27.5 20.5t15 31t6 36.5t1 46q0 73 43.5 113t107.5 40q58 0 94.5 -29t36.5 -75q0 -87 -70 -87q-32 0 -51 15.5t-19 47.5q0 22 14 35t14 18q0 11 -31 11q-8 0 -17.5 -3t-22.5 -11.5t-21.5 -28.5t-8.5 -48q0 -86 -17.5 -119.5t-65.5 -54.5v-3q86 -18 127 -62.5
t41 -130.5v-62q0 -38 28 -38q30 0 30 28v111h70v-121q0 -42 -31.5 -67t-81.5 -25q-63 0 -97 33t-34 94v56q0 141 -135 141h-157v-190q0 -51 60 -51h60v-70z" />
    <glyph glyph-name="afii10062" unicode="&#x40e;" horiz-adv-x="802" 
d="M423 743q36 0 67.5 8t31.5 25q0 1 -12 2t-24 8.5t-12 26.5q0 22 15.5 35.5t40.5 13.5q32 0 52 -17.5t20 -44.5q0 -42 -44 -73.5t-135 -31.5t-135 31.5t-44 73.5q0 28 20 45t52 17q27 0 41.5 -14t14.5 -35q0 -19 -12 -26.5t-24 -8.5t-12 -2q0 -17 31.5 -25t67.5 -8z
M501 673h270v-70h-10q-59 0 -98 -79l-198 -403q-37 -76 -82 -105t-111 -29q-68 0 -123 49q-27 24 -38.5 57t-11.5 58q0 35 24 60t58 25q33 0 54.5 -18t21.5 -45q0 -31 -15.5 -46.5t-30.5 -19.5t-15 -9q0 -15 21 -30.5t57 -15.5q46 0 72.5 20.5t48.5 64.5l-258 410
q-36 56 -106 56h-16v70h346v-70h-34q-70 0 -70 -25q0 -12 9 -27l184 -307l125 260q18 37 18 70q0 29 -56 29h-36v70z" />
    <glyph glyph-name="afii10145" unicode="&#x40f;" horiz-adv-x="936" 
d="M533 673h356v-70h-60q-60 0 -60 -51v-431q0 -51 60 -51h60v-70h-236q-84 0 -116 -33.5t-32 -94.5v-77h-74v77q0 60 -32.5 94t-115.5 34h-236v70h59q61 0 61 51v431q0 24 -12.5 37.5t-47.5 13.5h-60v70h356v-70h-60q-60 0 -60 -51v-482h370v482q0 24 -12.5 37.5
t-47.5 13.5h-60v70z" />
    <glyph glyph-name="afii10017" unicode="&#x410;" horiz-adv-x="817" 
d="M360 673h104l232 -514q19 -43 38 -66t44 -23h19v-70h-302v70h65q35 0 35 25q0 14 -9 32l-41 91h-326l-45 -96q-9 -18 -9 -29q0 -23 31 -23h86v-70h-274v70h17q23 0 41 12.5t25.5 25t16.5 31.5zM387 574l-135 -286h264z" />
    <glyph glyph-name="afii10018" unicode="&#x411;" horiz-adv-x="797" 
d="M283 603v-222h204q119 0 196.5 -46t77.5 -143q0 -192 -269 -192h-445v70h59q61 0 61 51v431q0 24 -12.5 37.5t-47.5 13.5h-60v70h665v-241h-70v44q0 56 -33.5 91.5t-98.5 35.5h-227zM283 311v-241h209q150 0 150 123q0 58 -43 88t-114 30h-202z" />
    <glyph glyph-name="afii10019" unicode="&#x412;" horiz-adv-x="797" 
d="M167 121v431q0 24 -12.5 37.5t-47.5 13.5h-60v70h422q259 0 259 -172q0 -56 -31 -94.5t-81 -58.5q63 -16 104 -56.5t41 -99.5q0 -192 -269 -192h-445v70h59q61 0 61 51zM283 603v-222h202q62 0 94.5 31t32.5 89q0 102 -143 102h-186zM283 311v-241h209q150 0 150 123
q0 58 -45 88t-112 30h-202z" />
    <glyph glyph-name="afii10020" unicode="&#x413;" horiz-adv-x="713" 
d="M47 673h639v-275h-70v78q0 57 -32 92t-100 35h-201v-482q0 -51 60 -51h60v-70h-356v70h59q61 0 61 51v431q0 24 -12.5 37.5t-47.5 13.5h-60v70z" />
    <glyph glyph-name="afii10021" unicode="&#x414;" horiz-adv-x="847" 
d="M98 673h702v-70h-60q-60 0 -60 -51v-482h120v-275h-70v78q0 57 -32 92t-100 35h-383q-68 0 -100 -35t-32 -92v-78h-70v275h29h63q68 74 102.5 193.5t34.5 256.5q0 23 -2 35t-10 25t-27 18t-51 5h-54v70zM564 70v533h-201q-30 0 -41 -14t-11 -57q0 -154 -25.5 -253.5
t-79.5 -208.5h358z" />
    <glyph glyph-name="afii10022" unicode="&#x415;" horiz-adv-x="830" 
d="M47 673h704v-275h-70v78q0 57 -32 92t-100 35h-266v-222h107q41 0 57 13t16 51v61h70v-326h-70v70q0 39 -14.5 50t-57.5 11h-108v-241h219q105 0 142 31.5t37 123.5v57h70v-282h-704v70h59q61 0 61 51v431q0 24 -12.5 37.5t-47.5 13.5h-60v70z" />
    <glyph glyph-name="afii10024" unicode="&#x416;" horiz-adv-x="1214" 
d="M785 0h-356v70h59q61 0 61 51v190h-125q-135 0 -135 -141v-56q0 -61 -34 -94t-97 -33q-50 0 -81.5 25t-31.5 67v121h70v-111q0 -28 30 -28q28 0 28 38v62q0 86 41 130.5t127 62.5v3q-48 21 -65.5 54.5t-17.5 119.5q0 28 -8.5 48t-21.5 28.5t-22.5 11.5t-17.5 3
q-31 0 -31 -11q0 -5 14 -18t14 -35q0 -32 -19 -47.5t-51 -15.5q-70 0 -70 87q0 46 36.5 75t94.5 29q64 0 107.5 -40t43.5 -113q0 -30 1 -46t6 -36.5t15 -31t27.5 -20.5t45.5 -14t67 -4h60v171q0 24 -12.5 37.5t-47.5 13.5h-60v70h356v-70h-60q-60 0 -60 -51v-171h60
q39 0 67 4t45.5 14t27.5 20.5t15 31t6 36.5t1 46q0 73 43.5 113t107.5 40q58 0 94.5 -29t36.5 -75q0 -87 -70 -87q-32 0 -51 15.5t-19 47.5q0 22 14 35t14 18q0 11 -31 11q-8 0 -17.5 -3t-22.5 -11.5t-21.5 -28.5t-8.5 -48q0 -86 -17.5 -119.5t-65.5 -54.5v-3
q86 -18 127 -62.5t41 -130.5v-62q0 -38 28 -38q30 0 30 28v111h70v-121q0 -42 -31.5 -67t-81.5 -25q-63 0 -97 33t-34 94v56q0 141 -135 141h-125v-190q0 -51 60 -51h60v-70z" />
    <glyph glyph-name="afii10025" unicode="&#x417;" horiz-adv-x="692" 
d="M144 407h-69v266h69v-91q34 46 91.5 77.5t130.5 31.5q120 0 187 -53t67 -128q0 -63 -41 -102.5t-110 -54.5v-4q86 -8 136.5 -51t50.5 -109q0 -92 -81 -149.5t-234 -57.5q-122 0 -208 65t-86 149q0 34 22 57.5t54 23.5q39 0 60 -21t21 -55q0 -25 -18.5 -43t-44.5 -19
q21 -39 71.5 -63.5t128.5 -24.5q193 0 193 138q0 28 -9.5 49.5t-27.5 34t-37.5 21t-46.5 12t-46 4.5t-44 1h-22v70h23q179 0 179 129q0 49 -43.5 80.5t-102.5 31.5q-87 0 -150 -58t-63 -157z" />
    <glyph glyph-name="afii10026" unicode="&#x418;" horiz-adv-x="946" 
d="M403 0h-356v70h59q61 0 61 51v431q0 24 -12.5 37.5t-47.5 13.5h-60v70h356v-70h-60q-60 0 -60 -51v-329h3l358 296q19 16 19 33q0 24 -12.5 37.5t-47.5 13.5h-60v70h356v-70h-60q-60 0 -60 -51v-431q0 -51 60 -51h60v-70h-356v70h59q61 0 61 51v329h-3l-358 -295
q-19 -16 -19 -34q0 -51 60 -51h60v-70z" />
    <glyph glyph-name="afii10027" unicode="&#x419;" horiz-adv-x="946" 
d="M403 0h-356v70h59q61 0 61 51v431q0 24 -12.5 37.5t-47.5 13.5h-60v70h356v-70h-60q-60 0 -60 -51v-329h3l358 296q19 16 19 33q0 24 -12.5 37.5t-47.5 13.5h-60v70h356v-70h-60q-60 0 -60 -51v-431q0 -51 60 -51h60v-70h-356v70h59q61 0 61 51v329h-3l-358 -295
q-19 -16 -19 -34q0 -51 60 -51h60v-70zM473 743q36 0 67.5 8t31.5 25q0 1 -12 2t-24 8.5t-12 26.5q0 22 15.5 35.5t40.5 13.5q32 0 52 -17.5t20 -44.5q0 -42 -44 -73.5t-135 -31.5t-135 31.5t-44 73.5q0 28 20 45t52 17q27 0 41.5 -14t14.5 -35q0 -19 -12 -26.5t-24 -8.5
t-12 -2q0 -17 31.5 -25t67.5 -8z" />
    <glyph glyph-name="afii10028" unicode="&#x41a;" horiz-adv-x="864" 
d="M403 0h-356v70h59q61 0 61 51v431q0 24 -12.5 37.5t-47.5 13.5h-60v70h356v-70h-60q-60 0 -60 -51v-171h92q39 0 67 4t45.5 14t27.5 20.5t15 31t6 36.5t1 46q0 73 43.5 113t107.5 40q58 0 94.5 -29t36.5 -75q0 -87 -70 -87q-32 0 -51 15.5t-19 47.5q0 22 14 35t14 18
q0 11 -31 11q-8 0 -17.5 -3t-22.5 -11.5t-21.5 -28.5t-8.5 -48q0 -86 -17.5 -119.5t-65.5 -54.5v-3q86 -18 127 -62.5t41 -130.5v-62q0 -38 28 -38q30 0 30 28v111h70v-121q0 -42 -31.5 -67t-81.5 -25q-63 0 -97 33t-34 94v56q0 141 -135 141h-157v-190q0 -51 60 -51h60v-70
z" />
    <glyph glyph-name="afii10029" unicode="&#x41b;" horiz-adv-x="910" 
d="M863 0h-356v70h59q61 0 61 51v482h-201q-23 0 -33.5 -10.5t-10.5 -42.5v-126q0 -259 -49 -348q-50 -90 -154 -90q-68 0 -123 49q-27 24 -38.5 57t-11.5 58q0 35 24.5 60t59.5 25q33 0 55.5 -18.5t22.5 -45.5t-16.5 -46t-38.5 -19q-11 0 -11 -9q0 -15 21 -30.5t58 -15.5
q75 0 103.5 83.5t28.5 277.5v111q0 37 -25.5 58.5t-72.5 21.5h-52v70h700v-70h-60q-60 0 -60 -51v-431q0 -51 60 -51h60v-70z" />
    <glyph glyph-name="afii10030" unicode="&#x41c;" horiz-adv-x="1052" 
d="M737 673h268v-70h-60q-60 0 -60 -51v-431q0 -51 60 -51h60v-70h-356v70h59q61 0 61 51v437h-5l-224 -558h-71l-225 558h-8v-437q0 -51 60 -51h60v-70h-310v70h59q61 0 61 51v431q0 24 -12.5 37.5t-47.5 13.5h-60v70h273l207 -535h4z" />
    <glyph glyph-name="afii10031" unicode="&#x41d;" horiz-adv-x="936" 
d="M403 0h-356v70h59q61 0 61 51v431q0 24 -12.5 37.5t-47.5 13.5h-60v70h356v-70h-60q-60 0 -60 -51v-171h370v171q0 24 -12.5 37.5t-47.5 13.5h-60v70h356v-70h-60q-60 0 -60 -51v-431q0 -51 60 -51h60v-70h-356v70h59q61 0 61 51v190h-370v-190q0 -51 60 -51h60v-70z" />
    <glyph glyph-name="afii10032" unicode="&#x41e;" horiz-adv-x="834" 
d="M417 691q164 0 267.5 -96t103.5 -258q0 -158 -105 -256.5t-266 -98.5q-170 0 -270.5 102.5t-100.5 252.5q0 155 107.5 254.5t263.5 99.5zM417 621q-113 0 -180.5 -79.5t-67.5 -204.5q0 -116 65 -200.5t183 -84.5q61 0 109.5 24.5t78 65.5t45 91t15.5 104q0 128 -63.5 206
t-184.5 78z" />
    <glyph glyph-name="afii10033" unicode="&#x41f;" horiz-adv-x="936" 
d="M403 0h-356v70h59q61 0 61 51v431q0 24 -12.5 37.5t-47.5 13.5h-60v70h842v-70h-60q-60 0 -60 -51v-431q0 -51 60 -51h60v-70h-356v70h59q61 0 61 51v482h-370v-482q0 -51 60 -51h60v-70z" />
    <glyph glyph-name="afii10034" unicode="&#x420;" horiz-adv-x="756" 
d="M403 0h-356v70h59q61 0 61 51v431q0 24 -12.5 37.5t-47.5 13.5h-60v70h432q122 0 183 -47t61 -131q0 -88 -61.5 -138.5t-182.5 -50.5h-196v-185q0 -51 60 -51h60v-70zM283 603v-227h187q70 0 100.5 30.5t30.5 88.5q0 108 -123 108h-195z" />
    <glyph glyph-name="afii10035" unicode="&#x421;" horiz-adv-x="790" 
d="M646 254h70q0 -125 -79.5 -198.5t-219.5 -73.5q-169 0 -270 102.5t-101 252.5q0 155 106.5 254.5t264.5 99.5q74 0 134.5 -31.5t94.5 -76.5v90h70v-265h-70q0 97 -71.5 155t-157.5 58q-113 0 -180.5 -79.5t-67.5 -204.5q0 -116 65 -200.5t183 -84.5q56 0 99 14t67 35
t39 49.5t19.5 53t4.5 50.5z" />
    <glyph glyph-name="afii10036" unicode="&#x422;" horiz-adv-x="760" 
d="M27 673h706v-275h-70v78q0 57 -32 92t-100 35h-93v-482q0 -51 60 -51h60v-70h-356v70h59q61 0 61 51v482h-93q-68 0 -100 -35t-32 -92v-78h-70v275z" />
    <glyph glyph-name="afii10037" unicode="&#x423;" horiz-adv-x="781" 
d="M501 673h270v-70h-10q-59 0 -98 -79l-198 -403q-37 -76 -82 -105t-111 -29q-68 0 -123 49q-27 24 -38.5 57t-11.5 58q0 35 24 60t58 25q33 0 54.5 -18t21.5 -45q0 -31 -15.5 -46.5t-30.5 -19.5t-15 -9q0 -15 21 -30.5t57 -15.5q46 0 72.5 20.5t48.5 64.5l-258 410
q-36 56 -106 56h-16v70h346v-70h-34q-70 0 -70 -25q0 -12 9 -27l184 -307l125 260q18 37 18 70q0 29 -56 29h-36v70z" />
    <glyph glyph-name="afii10038" unicode="&#x424;" horiz-adv-x="945" 
d="M650 0h-355v70h59q61 0 61 51v11h-98q-138 0 -208.5 63t-70.5 151t71 149.5t209 61.5h96q1 26 -11.5 38.5t-48.5 12.5h-60v70h356v-70h-60q-35 0 -47.5 -12.5t-12.5 -38.5h98q138 0 208.5 -61.5t70.5 -149.5t-70.5 -151t-208.5 -63h-98v-11q0 -51 60 -51h60v-70zM415 197
v295h-63q-91 0 -141.5 -31t-50.5 -115q0 -86 50.5 -117.5t141.5 -31.5h63zM530 492v-295h63q91 0 141.5 31.5t50.5 117.5q0 84 -50.5 115t-141.5 31h-63z" />
    <glyph glyph-name="afii10039" unicode="&#x425;" horiz-adv-x="881" 
d="M44 673h369v-70h-82q-26 0 -26 -18q0 -8 15 -25l139 -149l142 151q13 13 13 25q0 16 -19 16h-75v70h310v-70h-31q-68 0 -104 -37l-194 -201l237 -255q38 -40 94 -40h28v-70h-379v70h102q29 0 29 13q0 10 -30 43l-160 172q-21 -21 -57 -61l-113 -125q-21 -22 -21 -31
q0 -11 17 -11h107v-70h-330v70h31q52 0 87 30q19 16 79 79l157 164l-208 222q-35 38 -101 38h-26v70z" />
    <glyph glyph-name="afii10040" unicode="&#x426;" horiz-adv-x="937" 
d="M534 673h356v-70h-60q-60 0 -60 -51v-482h139v-275h-70v78q0 57 -32 92t-100 35h-660v70h59q61 0 61 51v431q0 24 -12.5 37.5t-47.5 13.5h-60v70h356v-70h-60q-60 0 -60 -51v-482h371v482q0 51 -60 51h-60v70z" />
    <glyph glyph-name="afii10041" unicode="&#x427;" horiz-adv-x="886" 
d="M839 0h-356v70h59q61 0 61 51v190q-107 -44 -218 -44q-102 0 -167 40t-65 115v130q0 24 -12.5 37.5t-47.5 13.5h-60v70h356v-70h-60q-60 0 -60 -51v-135q0 -40 41 -60t107 -20q97 0 186 44v171q0 24 -12.5 37.5t-47.5 13.5h-60v70h356v-70h-60q-60 0 -60 -51v-431
q0 -51 60 -51h60v-70z" />
    <glyph glyph-name="afii10042" unicode="&#x428;" horiz-adv-x="1284" 
d="M47 673h356v-70h-60q-60 0 -60 -51v-482h301v482q0 24 -12.5 37.5t-47.5 13.5h-60v70h356v-70h-60q-60 0 -60 -51v-482h301v482q0 24 -12.5 37.5t-47.5 13.5h-60v70h356v-70h-60q-60 0 -60 -51v-431q0 -51 60 -51h60v-70h-1190v70h59q61 0 61 51v431q0 24 -12.5 37.5
t-47.5 13.5h-60v70z" />
    <glyph glyph-name="afii10043" unicode="&#x429;" horiz-adv-x="1284" 
d="M47 673h356v-70h-60q-60 0 -60 -51v-482h301v482q0 24 -12.5 37.5t-47.5 13.5h-60v70h356v-70h-60q-60 0 -60 -51v-482h301v482q0 24 -12.5 37.5t-47.5 13.5h-60v70h356v-70h-60q-60 0 -60 -51v-482h120v-275h-70v78q0 57 -32 92t-100 35h-988v70h59q61 0 61 51v431
q0 24 -12.5 37.5t-47.5 13.5h-60v70z" />
    <glyph glyph-name="afii10044" unicode="&#x42a;" horiz-adv-x="955" 
d="M27 673h537v-70h-60q-60 0 -60 -51v-171h201q77 0 137 -17.5t100 -61.5t40 -110q0 -192 -269 -192h-445v70h59q61 0 61 51v482h-99q-68 0 -100 -35t-32 -92v-78h-70v275zM444 311v-241h209q77 0 113.5 33t36.5 90q0 58 -44.5 88t-113.5 30h-201z" />
    <glyph glyph-name="afii10045" unicode="&#x42b;" horiz-adv-x="1182" 
d="M283 552v-171h202q76 0 136 -17.5t100 -61.5t40 -110q0 -192 -269 -192h-445v70h59q61 0 61 51v431q0 24 -12.5 37.5t-47.5 13.5h-60v70h356v-70h-60q-60 0 -60 -51zM283 311v-241h209q150 0 150 123q0 58 -44 88t-113 30h-202zM779 673h356v-70h-60q-60 0 -60 -51v-431
q0 -51 60 -51h60v-70h-356v70h59q61 0 61 51v431q0 24 -12.5 37.5t-47.5 13.5h-60v70z" />
    <glyph glyph-name="afii10046" unicode="&#x42c;" horiz-adv-x="794" 
d="M283 552v-171h202q76 0 136 -17.5t100 -61.5t40 -110q0 -192 -269 -192h-445v70h59q61 0 61 51v431q0 24 -12.5 37.5t-47.5 13.5h-60v70h356v-70h-60q-60 0 -60 -51zM283 311v-241h209q150 0 150 123q0 58 -44 88t-113 30h-202z" />
    <glyph glyph-name="afii10047" unicode="&#x42d;" horiz-adv-x="763" 
d="M241 381h351q-12 108 -78 174.5t-168 66.5q-87 0 -158 -58.5t-71 -155.5h-70v265h70v-90q36 44 97 76t132 32q156 0 263.5 -99.5t107.5 -254.5q0 -150 -101 -252.5t-270 -102.5q-122 0 -210.5 65.5t-88.5 148.5q0 34 22 57.5t54 23.5q39 0 60 -21t21 -55q0 -25 -18.5 -43
t-44.5 -19q21 -38 74 -63t131 -25q112 0 177 76.5t70 183.5h-352v70z" />
    <glyph glyph-name="afii10048" unicode="&#x42e;" horiz-adv-x="1222" 
d="M283 381h154q16 138 120 224t248 86q164 0 267.5 -96t103.5 -258q0 -158 -105 -256.5t-266 -98.5q-162 0 -261.5 94t-108.5 235h-152v-190q0 -51 60 -51h60v-70h-356v70h59q61 0 61 51v431q0 24 -12.5 37.5t-47.5 13.5h-60v70h356v-70h-60q-60 0 -60 -51v-171zM805 622
q-113 0 -181 -80t-68 -205q0 -116 65.5 -201t183.5 -85t183 85.5t65 200.5q0 129 -63.5 207t-184.5 78z" />
    <glyph glyph-name="afii10049" unicode="&#x42f;" horiz-adv-x="843" 
d="M269 333v2q-162 30 -162 162q0 176 260 176h429v-70h-60q-60 0 -60 -51v-431q0 -51 60 -51h60v-70h-356v70h59q61 0 61 51v185h-182q-32 0 -54.5 -13.5t-33.5 -36t-16 -45t-5 -46.5v-51q0 -55 -36.5 -91t-97.5 -36q-50 0 -80 25t-30 67v121h70v-111q0 -28 30 -28
q28 0 28 38v57q0 66 26 108t90 69zM560 375v228h-193q-80 0 -109 -27.5t-29 -78.5q0 -122 138 -122h193z" />
    <glyph glyph-name="afii10065" unicode="&#x430;" horiz-adv-x="613" 
d="M165 391q33 -24 33 -54q0 -25 -19 -42t-46 -17q-30 0 -47 19.5t-17 51.5q0 60 58 92t142 32q93 0 153 -33.5t60 -105.5v-256q0 -34 29 -34q24 0 24 34v81h58v-81q0 -37 -23 -65.5t-78 -28.5q-75 0 -101 77q-71 -77 -183 -77q-70 0 -118 30.5t-48 90.5q0 68 47 99t128 45
q8 1 30 4.5t33 6t29.5 6.5t28.5 9.5t21 13.5t16 19.5t5 25.5q0 43 -37.5 65t-86.5 22q-67 0 -91 -30zM380 164v78q-25 -18 -68.5 -29t-76 -16t-57.5 -25t-25 -57q0 -31 25.5 -51t58.5 -20q58 0 100.5 34t42.5 86z" />
    <glyph glyph-name="afii10066" unicode="&#x431;" horiz-adv-x="602" 
d="M109 344h8q30 60 82 94t117 34q111 0 179 -68.5t68 -174.5q0 -105 -73.5 -175t-181.5 -70q-113 0 -184 75.5t-71 224.5q0 202 59.5 283t194.5 81h52q66 0 91 7.5t25 34.5h55q0 -36 -11 -62.5t-26.5 -40.5t-40 -21.5t-43.5 -9.5t-44 -2h-56q-91 0 -145.5 -47.5
t-54.5 -151.5v-11zM308 413q-62 0 -103 -53.5t-41 -130.5q0 -75 39 -130.5t105 -55.5t105 55.5t39 130.5q0 74 -39 129t-105 55z" />
    <glyph glyph-name="afii10067" unicode="&#x432;" horiz-adv-x="612" 
d="M233 211v-151h133q58 0 80 19t22 57q0 39 -26.5 57t-67.5 18h-141zM42 458h304q97 0 150 -31t53 -85q0 -75 -99 -101v-3q69 -10 99 -40.5t30 -72.5q0 -68 -52 -96.5t-161 -28.5h-324v60h40q30 0 39.5 12t9.5 43v228q0 31 -9.5 43t-39.5 12h-40v60zM233 398v-128h127
q44 0 63.5 16t19.5 52q0 32 -21 46t-76 14h-113z" />
    <glyph glyph-name="afii10068" unicode="&#x433;" horiz-adv-x="547" 
d="M322 0h-280v60h40q30 0 39.5 12t9.5 43v228q0 31 -9.5 43t-39.5 12h-40v60h477v-203h-58v47q0 96 -109 96h-119v-283q0 -31 9.5 -43t39.5 -12h40v-60z" />
    <glyph glyph-name="afii10069" unicode="&#x434;" horiz-adv-x="660" 
d="M83 458h535v-60h-40q-30 0 -39.5 -12t-9.5 -43v-283h89v-203h-58v47q0 96 -109 96h-256q-109 0 -109 -96v-47h-58v203h82q83 110 83 280q0 28 -13.5 43t-53.5 15h-43v60zM427 60v338h-140q-20 0 -28 -10.5t-8 -35.5q0 -172 -66 -292h242z" />
    <glyph glyph-name="afii10070" unicode="&#x435;" horiz-adv-x="576" 
d="M459 159h64q-21 -82 -82 -128.5t-148 -46.5q-117 0 -185.5 69t-68.5 176q0 62 23.5 111t61.5 77t82 42t90 14q106 0 171 -68t65 -175v-8h-381v-20q0 -64 48 -111.5t107 -47.5t98.5 31t54.5 85zM151 280h272q-4 67 -40 100.5t-89 33.5q-125 0 -143 -134z" />
    <glyph glyph-name="afii10072" unicode="&#x436;" horiz-adv-x="970" 
d="M625 0h-280v60h40q30 0 39.5 12t9.5 43v96h-34q-141 0 -141 -86v-30q0 -50 -24.5 -80.5t-92.5 -30.5q-32 0 -53 9.5t-30 27.5t-11.5 34t-2.5 40v64h58v-63q0 -29 5 -40t21 -11t22 11t6 40v29q0 36 17.5 60.5t44 35t45.5 14t35 3.5v3q-77 16 -77 107v16q0 31 -18.5 43.5
t-39.5 12.5q-25 0 -25 -9l3 -1q3 -1 7.5 -4t9.5 -7t8 -12t3 -18q0 -24 -16.5 -38.5t-45.5 -14.5q-31 0 -47 19.5t-16 45.5q0 36 27 64t89 28q52 0 85.5 -27.5t33.5 -77.5v-21q0 -45 27.5 -61.5t85.5 -16.5h41v74q0 31 -9.5 43t-39.5 12h-40v60h280v-60h-40q-30 0 -39.5 -12
t-9.5 -43v-74h41q58 0 85.5 16.5t27.5 61.5v21q0 50 33.5 77.5t85.5 27.5q62 0 89 -28t27 -64q0 -26 -16 -45.5t-47 -19.5q-29 0 -45.5 14.5t-16.5 38.5q0 10 3 18t8 12t9.5 7t7.5 4l3 1q0 9 -25 9q-21 0 -39.5 -12.5t-18.5 -43.5v-16q0 -91 -77 -107v-3q16 0 35 -3.5
t45.5 -14t44 -35t17.5 -60.5v-29q0 -29 6 -40t22 -11t21 11t5 40v63h58v-64q0 -24 -2.5 -40t-11.5 -34t-30 -27.5t-53 -9.5q-68 0 -92.5 30.5t-24.5 80.5v30q0 86 -141 86h-34v-96q0 -31 9.5 -43t39.5 -12h40v-60z" />
    <glyph glyph-name="afii10073" unicode="&#x437;" horiz-adv-x="524" 
d="M216 211v59h37q100 0 100 75q0 34 -23 51.5t-57 17.5q-53 0 -96 -32.5t-43 -92.5h-58v169h35l23 -44q26 26 64 42.5t75 16.5q91 0 140 -38t49 -86q0 -37 -19.5 -65t-80.5 -46q129 -18 129 -113q0 -71 -67.5 -106t-160.5 -35q-83 0 -151 43.5t-68 112.5q0 27 18 49t46 22
t46 -15t18 -35q0 -56 -57 -56q36 -62 150 -62q115 0 115 79q0 37 -36 63t-90 26h-38z" />
    <glyph glyph-name="afii10074" unicode="&#x438;" horiz-adv-x="736" 
d="M42 458h280v-60h-40q-30 0 -39.5 -12t-9.5 -43v-176l4 5l248 177q18 13 18 26q0 23 -35 23h-54v60h280v-60h-40q-30 0 -39.5 -12t-9.5 -43v-228q0 -31 9.5 -43t39.5 -12h40v-60h-280v60h40q30 0 39.5 12t9.5 43v183l-4 -4l-244 -174q-22 -15 -22 -30q0 -16 10.5 -23
t38.5 -7h40v-60h-280v60h40q30 0 39.5 12t9.5 43v228q0 31 -9.5 43t-39.5 12h-40v60z" />
    <glyph glyph-name="afii10075" unicode="&#x439;" horiz-adv-x="736" 
d="M42 458h280v-60h-40q-30 0 -39.5 -12t-9.5 -43v-176l4 5l248 177q18 13 18 26q0 23 -35 23h-54v60h280v-60h-40q-30 0 -39.5 -12t-9.5 -43v-228q0 -31 9.5 -43t39.5 -12h40v-60h-280v60h40q30 0 39.5 12t9.5 43v183l-4 -4l-244 -174q-22 -15 -22 -30q0 -16 10.5 -23
t38.5 -7h40v-60h-280v60h40q30 0 39.5 12t9.5 43v228q0 31 -9.5 43t-39.5 12h-40v60zM369 511q-85 0 -133.5 30.5t-48.5 72.5q0 28 21 43.5t48 15.5q20 0 38 -10.5t18 -31.5q0 -20 -9 -29.5t-18 -12.5t-9 -7t7 -9t29.5 -10t55.5 -5q29 0 50.5 4t31.5 9.5t10 10.5q0 4 -9 7
t-18.5 12t-9.5 28q0 20 18 32t39 12q30 0 49.5 -15t19.5 -44q0 -38 -45.5 -70.5t-134.5 -32.5z" />
    <glyph glyph-name="afii10076" unicode="&#x43a;" horiz-adv-x="681" 
d="M322 0h-280v60h40q30 0 39.5 12t9.5 43v228q0 31 -9.5 43t-39.5 12h-40v60h280v-60h-40q-30 0 -39.5 -12t-9.5 -43v-74h55q58 0 85.5 16.5t27.5 61.5v21q0 51 33 78t86 27q62 0 89 -28t27 -64q0 -26 -16 -45.5t-47 -19.5q-29 0 -45.5 14.5t-16.5 38.5q0 10 3 18t7.5 12
t9.5 7t8 4l3 1q0 9 -26 9q-21 0 -39 -12.5t-18 -43.5v-16q0 -91 -77 -107v-3q16 0 35 -3.5t45.5 -14t44 -35t17.5 -60.5v-29q0 -29 6.5 -40.5t23.5 -11.5q24 0 24 34v81h58v-81q0 -37 -23 -65.5t-78 -28.5q-113 0 -113 111v30q0 86 -141 86h-48v-96q0 -31 9.5 -43t39.5 -12
h40v-60z" />
    <glyph glyph-name="afii10077" unicode="&#x43b;" horiz-adv-x="719" 
d="M136 458h541v-60h-40q-30 0 -39.5 -12t-9.5 -43v-228q0 -31 9.5 -43t39.5 -12h40v-60h-280v60h40q30 0 39.5 12t9.5 43v283h-157q-10 0 -17.5 -7t-7.5 -20v-91q0 -140 -37.5 -217.5t-129.5 -77.5q-53 0 -90 32t-37 80q0 33 22 55t59 22q31 0 47.5 -15.5t16.5 -43.5
q0 -43 -42 -59q7 -16 36 -16q47 0 71.5 52t24.5 180v68q0 29 -13 43.5t-54 14.5h-42v60z" />
    <glyph glyph-name="afii10078" unicode="&#x43c;" horiz-adv-x="827" 
d="M264 458l145 -311h5l149 311h222v-60h-40q-30 0 -39.5 -12t-9.5 -43v-228q0 -31 9.5 -43t39.5 -12h40v-60h-280v60h40q30 0 39.5 12t9.5 43v268h-5l-181 -383h-32l-182 383h-5v-268q0 -31 9.5 -43t39.5 -12h40v-60h-236v60h40q30 0 39.5 12t9.5 43v228q0 31 -9.5 43
t-39.5 12h-40v60h222z" />
    <glyph glyph-name="afii10079" unicode="&#x43d;" horiz-adv-x="722" 
d="M680 0h-280v60h40q30 0 39.5 12t9.5 43v96h-256v-96q0 -31 9.5 -43t39.5 -12h40v-60h-280v60h40q30 0 39.5 12t9.5 43v228q0 31 -9.5 43t-39.5 12h-40v60h280v-60h-40q-30 0 -39.5 -12t-9.5 -43v-74h256v74q0 31 -9.5 43t-39.5 12h-40v60h280v-60h-40q-30 0 -39.5 -12
t-9.5 -43v-228q0 -31 9.5 -43t39.5 -12h40v-60z" />
    <glyph glyph-name="afii10080" unicode="&#x43e;" horiz-adv-x="592" 
d="M296 -16q-108 0 -182.5 70.5t-74.5 175.5t74.5 174t182.5 69t182.5 -69t74.5 -174t-74.5 -175.5t-182.5 -70.5zM296 43q64 0 105 48t41 139q0 90 -41 137t-105 47t-105 -47t-41 -137q0 -91 41 -139t105 -48z" />
    <glyph glyph-name="afii10081" unicode="&#x43f;" horiz-adv-x="722" 
d="M322 0h-280v60h40q30 0 39.5 12t9.5 43v228q0 31 -9.5 43t-39.5 12h-40v60h638v-60h-40q-30 0 -39.5 -12t-9.5 -43v-228q0 -31 9.5 -43t39.5 -12h40v-60h-280v60h40q30 0 39.5 12t9.5 43v283h-256v-283q0 -31 9.5 -43t39.5 -12h40v-60z" />
    <glyph glyph-name="afii10082" unicode="&#x440;" horiz-adv-x="646" 
d="M308 -212h-280v60h40q30 0 39.5 12t9.5 43v440q0 31 -9.5 43t-39.5 12h-40v60h191l-4 -60h4q61 75 168 75q99 0 159.5 -70t60.5 -176q0 -61 -20.5 -109.5t-53.5 -76.5t-70.5 -42.5t-75.5 -14.5q-106 0 -172 77l4 -44v-114q0 -31 9.5 -43t39.5 -12h40v-60zM215 227
q4 -83 46 -133.5t95 -50.5q69 0 104.5 50.5t35.5 133.5q0 82 -36 134.5t-106 52.5q-55 0 -95 -52t-44 -135z" />
    <glyph glyph-name="afii10083" unicode="&#x441;" horiz-adv-x="556" 
d="M442 159h65q-7 -86 -68 -130.5t-140 -44.5q-120 0 -190 66.5t-70 178.5q0 110 71.5 177t188.5 67q84 0 148.5 -44t64.5 -120q0 -32 -16.5 -53t-49.5 -21q-25 0 -43.5 18t-18.5 42q0 22 13 34.5t25.5 17.5t12.5 7q0 23 -36 41.5t-92 18.5q-77 0 -117 -52t-40 -133
q0 -73 39.5 -129.5t109.5 -56.5q52 0 93.5 29.5t49.5 86.5z" />
    <glyph glyph-name="afii10084" unicode="&#x442;" horiz-adv-x="614" 
d="M447 0h-280v60h40q30 0 39.5 12t9.5 43v283h-61q-109 0 -109 -96v-47h-58v203h558v-203h-58v47q0 96 -109 96h-61v-283q0 -31 9.5 -43t39.5 -12h40v-60z" />
    <glyph glyph-name="afii10085" unicode="&#x443;" horiz-adv-x="596" 
d="M10 458h285v-60h-51q-40 0 -40 -17q0 -20 10 -40l116 -233h4l119 234q13 28 13 39t-7 14t-28 3h-58v60h223v-60h-13q-27 0 -38.5 -11t-31.5 -50l-238 -461q-55 -107 -153 -107q-50 0 -85.5 32t-35.5 79q0 38 20 59.5t55 21.5q30 0 50 -16t20 -42q0 -43 -48 -62
q6 -16 36 -16q51 0 92 79l52 98l-178 349q-15 30 -27 38.5t-43 8.5h-20v60z" />
    <glyph glyph-name="afii10086" unicode="&#x444;" horiz-adv-x="956" 
d="M618 -212h-280v60h40q30 0 39.5 12t9.5 43v113q0 6 2.5 22.5t2.5 23.5q-65 -78 -174 -78q-83 0 -151 62.5t-68 180.5q0 106 60.5 176t159.5 70q101 0 168 -74h2q0 6 -1 18.5t-1 17.5v136q0 31 -9.5 43t-39.5 12h-40v60h191v-251q0 -5 -1 -17.5t-1 -18.5h2q69 74 168 74
t159.5 -70t60.5 -176q0 -118 -68 -180.5t-151 -62.5q-109 0 -174 78q0 -7 2.5 -24t2.5 -22v-113q0 -31 9.5 -43t39.5 -12h40v-60zM528 227q0 -81 42 -132t95 -51q69 0 105 50t36 133q0 81 -36.5 133.5t-107.5 52.5q-59 0 -96.5 -51.5t-37.5 -134.5zM428 227
q0 83 -37.5 134.5t-96.5 51.5q-71 0 -107.5 -52.5t-36.5 -133.5q0 -83 36 -133t105 -50q53 0 95 50.5t42 132.5z" />
    <glyph glyph-name="afii10087" unicode="&#x445;" horiz-adv-x="668" 
d="M28 0v60h20q48 0 99 46l134 121l-132 135q-23 23 -40.5 29.5t-50.5 6.5h-18v60h279v-60h-40q-22 0 -22 -9q0 -10 13 -23l82 -86l86 80q17 16 17 28q0 10 -33 10h-25v60h233v-60h-26q-39 0 -80 -36l-133 -117l134 -136q49 -49 103 -49h12v-60h-282v60h37q32 0 32 10
q0 11 -20 31l-88 91l-93 -91q-19 -19 -19 -28q0 -13 27 -13h37v-60h-243z" />
    <glyph glyph-name="afii10088" unicode="&#x446;" horiz-adv-x="720" 
d="M42 458h280v-60h-40q-30 0 -39.5 -12t-9.5 -43v-283h255v283q0 31 -9.5 43t-39.5 12h-40v60h280v-60h-40q-30 0 -39.5 -12t-9.5 -43v-283h102v-203h-58v47q0 96 -109 96h-483v60h40q30 0 39.5 12t9.5 43v228q0 31 -9.5 43t-39.5 12h-40v60z" />
    <glyph glyph-name="afii10089" unicode="&#x447;" horiz-adv-x="665" 
d="M623 0h-280v60h40q30 0 39.5 12t9.5 43v78q-78 -34 -165 -34q-26 0 -52.5 6t-53 18t-43 35.5t-16.5 55.5v69q0 31 -9.5 43t-39.5 12h-40v60h280v-60h-40q-30 0 -39.5 -12t-9.5 -43v-63q0 -31 26 -48t67 -17q73 0 135 34v94q0 31 -9.5 43t-39.5 12h-40v60h280v-60h-40
q-30 0 -39.5 -12t-9.5 -43v-228q0 -31 9.5 -43t39.5 -12h40v-60z" />
    <glyph glyph-name="afii10090" unicode="&#x448;" horiz-adv-x="1044" 
d="M42 458h280v-60h-40q-30 0 -39.5 -12t-9.5 -43v-283h238v283q0 31 -9.5 43t-39.5 12h-40v60h280v-60h-40q-30 0 -39.5 -12t-9.5 -43v-283h238v283q0 31 -9.5 43t-39.5 12h-40v60h280v-60h-40q-30 0 -39.5 -12t-9.5 -43v-228q0 -31 9.5 -43t39.5 -12h40v-60h-960v60h40
q30 0 39.5 12t9.5 43v228q0 31 -9.5 43t-39.5 12h-40v60z" />
    <glyph glyph-name="afii10091" unicode="&#x449;" horiz-adv-x="1043" 
d="M42 458h280v-60h-40q-30 0 -39.5 -12t-9.5 -43v-283h238v283q0 31 -9.5 43t-39.5 12h-40v60h280v-60h-40q-30 0 -39.5 -12t-9.5 -43v-283h238v283q0 31 -9.5 43t-39.5 12h-40v60h280v-60h-40q-30 0 -39.5 -12t-9.5 -43v-283h102v-203h-58v47q0 96 -109 96h-806v60h40
q30 0 39.5 12t9.5 43v228q0 31 -9.5 43t-39.5 12h-40v60z" />
    <glyph glyph-name="afii10092" unicode="&#x44a;" horiz-adv-x="733" 
d="M364 211v-151h128q57 0 80.5 19.5t23.5 56.5q0 42 -22.5 58.5t-81.5 16.5h-128zM28 458h425v-60h-40q-30 0 -39.5 -12t-9.5 -43v-73h135q208 0 208 -135q0 -61 -50 -98t-160 -37h-324v60h40q30 0 39.5 12t9.5 43v283h-67q-109 0 -109 -96v-47h-58v203z" />
    <glyph glyph-name="afii10093" unicode="&#x44b;" horiz-adv-x="910" 
d="M233 211v-151h128q57 0 80.5 19.5t23.5 56.5q0 42 -22.5 58.5t-81.5 16.5h-128zM42 458h280v-60h-40q-30 0 -39.5 -12t-9.5 -43v-73h135q208 0 208 -135q0 -61 -50 -98t-160 -37h-324v60h40q30 0 39.5 12t9.5 43v228q0 31 -9.5 43t-39.5 12h-40v60zM588 458h280v-60h-40
q-30 0 -39.5 -12t-9.5 -43v-228q0 -31 9.5 -43t39.5 -12h40v-60h-280v60h40q30 0 39.5 12t9.5 43v228q0 31 -9.5 43t-39.5 12h-40v60z" />
    <glyph glyph-name="afii10094" unicode="&#x44c;" horiz-adv-x="602" 
d="M233 211v-151h128q57 0 80.5 19.5t23.5 56.5q0 42 -22.5 58.5t-81.5 16.5h-128zM42 458h280v-60h-40q-30 0 -39.5 -12t-9.5 -43v-73h134q209 0 209 -135q0 -61 -50.5 -98t-159.5 -37h-324v60h40q30 0 39.5 12t9.5 43v228q0 31 -9.5 43t-39.5 12h-40v60z" />
    <glyph glyph-name="afii10095" unicode="&#x44d;" horiz-adv-x="556" 
d="M229 211v59h175q-10 59 -49 101.5t-98 42.5q-53 0 -95.5 -32.5t-42.5 -92.5h-59v169h36l22 -44q62 59 143 59q120 0 188 -66t68 -179q0 -109 -71.5 -176.5t-188.5 -67.5q-91 0 -152 47.5t-61 120.5q0 26 19 47t47 21q30 0 49.5 -16t19.5 -41q0 -57 -64 -57
q33 -63 134 -63q74 0 114.5 47.5t40.5 120.5h-175z" />
    <glyph glyph-name="afii10096" unicode="&#x44e;" horiz-adv-x="897" 
d="M233 270h117q15 88 86.5 145.5t166.5 57.5q109 0 182 -69t73 -174q0 -106 -73 -176t-182 -70q-104 0 -175.5 64t-77.5 163h-117v-96q0 -31 9.5 -43t39.5 -12h40v-60h-280v60h40q30 0 39.5 12t9.5 43v228q0 31 -9.5 43t-39.5 12h-40v60h280v-60h-40q-30 0 -39.5 -12
t-9.5 -43v-73zM603 414q-68 0 -106 -51t-38 -134q0 -75 39 -130.5t105 -55.5t105 55.5t39 131.5q0 74 -39 129t-105 55z" />
    <glyph glyph-name="afii10097" unicode="&#x44f;" horiz-adv-x="656" 
d="M25 159h58v-62q0 -29 5 -40.5t21 -11.5t22 11t6 40v30q0 49 29 74t64 32v4q-62 3 -104.5 29t-42.5 79q0 62 59 88t173 26h299v-60h-40q-30 0 -39.5 -12t-9.5 -43v-228q0 -31 9.5 -43t39.5 -12h40v-60h-280v60h40q30 0 39.5 12t9.5 43v96h-68q-48 0 -82 -20t-34 -65v-31
q0 -50 -24.5 -80t-92.5 -30q-32 0 -53 9t-30 27t-11.5 34t-2.5 40v64zM423 269v129h-99q-75 0 -104 -12.5t-29 -45.5q0 -42 27.5 -56.5t111.5 -14.5h93z" />
    <glyph glyph-name="afii10071" unicode="&#x451;" horiz-adv-x="549" 
d="M460 163h63q-5 -84 -71.5 -131.5t-158.5 -47.5q-117 0 -185.5 69t-68.5 176q0 62 23.5 111t61 77t80.5 42t87 14q117 0 179 -71.5t62 -179.5h-381v-20q0 -64 48 -111.5t107 -47.5q62 0 103 30.5t51 89.5zM151 280h275q-3 67 -42 100.5t-90 33.5q-125 0 -143 -134z
M115 613q0 28 20 44t50 16t50 -16t20 -44t-20 -44t-50 -16t-50 16t-20 44zM330 613q0 28 20 44t50 16t50 -16t20 -44t-20 -44t-50 -16t-50 16t-20 44z" />
    <glyph glyph-name="afii10099" unicode="&#x452;" horiz-adv-x="655" 
d="M320 0h-280v60h40q30 0 39.5 12t9.5 43v396h-129v60h129q0 31 -9.5 43t-39.5 12h-40v60h191v-115h148v-60h-148v-119q98 81 192 81q18 0 36 -2t43 -11.5t43 -24.5t31 -43.5t13 -67.5v-404q0 -64 -47 -107t-123 -43q-61 0 -110.5 33.5t-49.5 80.5q0 38 18.5 59t49.5 21
q28 0 47.5 -15.5t19.5 -44.5q0 -51 -45 -58q15 -17 60 -17q31 0 54.5 20.5t23.5 51.5v423q0 36 -21.5 60t-65.5 24q-82 0 -169 -93v-200q0 -31 9.5 -43t39.5 -12h40v-60z" />
    <glyph glyph-name="afii10100" unicode="&#x453;" horiz-adv-x="547" 
d="M233 499l-12 13l95 107q5 6 17.5 21.5t20.5 24.5t20.5 17.5t23.5 8.5q16 0 28 -14q10 -12 10 -24t-9.5 -24t-19 -18.5t-28.5 -17.5t-25 -15zM322 0h-280v60h40q30 0 39.5 12t9.5 43v228q0 31 -9.5 43t-39.5 12h-40v60h477v-203h-58v47q0 96 -109 96h-119v-283
q0 -31 9.5 -43t39.5 -12h40v-60z" />
    <glyph glyph-name="afii10101" unicode="&#x454;" horiz-adv-x="559" 
d="M443 159h65q-6 -86 -66.5 -130.5t-141.5 -44.5q-120 0 -190 66.5t-70 178.5q0 110 71.5 177t188.5 67q90 0 151.5 -44t61.5 -124q0 -26 -18 -47t-46 -21q-30 0 -50.5 16t-20.5 41q0 30 16 44t36 14q9 0 13 -2q-7 25 -42 44.5t-93 19.5q-66 0 -105.5 -40t-49.5 -104h155
v-59h-155q3 -68 42.5 -118t104.5 -50q52 0 93.5 29.5t49.5 86.5z" />
    <glyph glyph-name="afii10102" unicode="&#x455;" horiz-adv-x="543" 
d="M48 187h58v-13q0 -45 63 -88t131 -43q39 0 72.5 17.5t33.5 50.5q0 29 -27 46t-67.5 22t-87.5 14t-87.5 20t-67.5 42t-27 79q0 62 51 100.5t134 38.5q55 0 107.5 -20t81.5 -54v59h58v-173h-48q-23 59 -74 94t-126 35q-33 0 -62 -17.5t-29 -44.5q0 -33 37.5 -49t91.5 -22.5
t108 -17t91.5 -43.5t37.5 -90q0 -72 -58 -109t-143 -37q-66 0 -110.5 19.5t-83.5 58.5v-62h-58v187z" />
    <glyph glyph-name="afii10103" unicode="&#x456;" horiz-adv-x="359" 
d="M42 458h191v-343q0 -31 9.5 -43t39.5 -12h40v-60h-280v60h40q30 0 39.5 12t9.5 43v228q0 31 -9.5 43t-39.5 12h-40v60zM108 613q0 28 20 44t50 16t50 -16t20 -44t-20 -44t-50 -16t-50 16t-20 44z" />
    <glyph glyph-name="afii10104" unicode="&#x457;" horiz-adv-x="359" 
d="M13 613q0 28 20 44t50 16t50 -16t20 -44t-20 -44t-50 -16t-50 16t-20 44zM181 613q0 28 20 44t50 16t50 -16t20 -44t-20 -44t-50 -16t-50 16t-20 44zM42 458h191v-343q0 -31 9.5 -43t39.5 -12h40v-60h-280v60h40q30 0 39.5 12t9.5 43v228q0 31 -9.5 43t-39.5 12h-40v60z
" />
    <glyph glyph-name="afii10105" unicode="&#x458;" horiz-adv-x="371" 
d="M114 613q0 28 20 44t50 16t50 -16t20 -44t-20 -44t-50 -16t-50 16t-20 44zM49 458h191v-528q0 -69 -39 -115t-122 -46q-69 0 -119 33t-50 81q0 38 18.5 59t49.5 21q28 0 47.5 -15.5t19.5 -44.5q0 -51 -45 -58q21 -18 60 -18q43 0 60.5 25.5t17.5 87.5v403q0 31 -9.5 43
t-39.5 12h-40v60z" />
    <glyph glyph-name="afii10106" unicode="&#x459;" horiz-adv-x="964" 
d="M136 458h550v-60h-40q-28 0 -38.5 -13t-10.5 -42v-73h135q208 0 208 -134q0 -61 -50.5 -98.5t-159.5 -37.5h-324v61h40q49 0 49 41v296h-166q-10 0 -17.5 -7t-7.5 -20v-91q0 -140 -37.5 -217.5t-129.5 -77.5q-53 0 -90 32t-37 80q0 33 22 55t59 22q31 0 47.5 -15.5
t16.5 -43.5q0 -43 -42 -59q7 -16 36 -16q47 0 71.5 52t24.5 180v68q0 29 -13 43.5t-54 14.5h-42v60zM597 212v-151h128q57 0 80.5 19t23.5 57q0 41 -22.5 58t-81.5 17h-128z" />
    <glyph glyph-name="afii10107" unicode="&#x45a;" horiz-adv-x="958" 
d="M593 211v-151h128q57 0 80.5 19.5t23.5 56.5q0 42 -22.5 58.5t-81.5 16.5h-128zM402 458h280v-60h-40q-30 0 -39.5 -12t-9.5 -43v-74h134q209 0 209 -134q0 -61 -50.5 -98t-159.5 -37h-324v60h40q30 0 39.5 12t9.5 43v96h-256v-96q0 -31 9.5 -43t39.5 -12h40v-60h-280v60
h40q30 0 39.5 12t9.5 43v228q0 31 -9.5 43t-39.5 12h-40v60h280v-60h-40q-30 0 -39.5 -12t-9.5 -43v-74h256v74q0 31 -9.5 43t-39.5 12h-40v60z" />
    <glyph glyph-name="afii10108" unicode="&#x45b;" horiz-adv-x="711" 
d="M318 0h-280v60h40q30 0 39.5 12t9.5 43v396h-128v60h128q0 31 -9.5 43t-39.5 12h-40v60h191v-115h148v-60h-148v-119q98 81 192 81q18 0 36 -2t43 -11.5t43 -24.5t31 -43.5t13 -67.5v-209q0 -31 9.5 -43t39.5 -12h40v-60h-280v60h40q30 0 39.5 12t9.5 43v209
q0 36 -21.5 60t-65.5 24q-82 0 -169 -93v-200q0 -31 9.5 -43t39.5 -12h40v-60z" />
    <glyph glyph-name="afii10109" unicode="&#x45c;" horiz-adv-x="690" 
d="M272 499l-12 13l95 107q5 6 17.5 21.5t20.5 24.5t20.5 17.5t23.5 8.5q16 0 28 -14q10 -12 10 -24t-9.5 -24t-19 -18.5t-28.5 -17.5t-25 -15zM322 0h-280v60h40q30 0 39.5 12t9.5 43v228q0 31 -9.5 43t-39.5 12h-40v60h280v-60h-40q-30 0 -39.5 -12t-9.5 -43v-74h55
q58 0 85.5 16.5t27.5 61.5v21q0 51 33 78t86 27q62 0 89 -28t27 -64q0 -26 -16 -45.5t-47 -19.5q-29 0 -45.5 14.5t-16.5 38.5q0 10 3 18t7.5 12t9.5 7t8 4l3 1q0 9 -26 9q-21 0 -39 -12.5t-18 -43.5v-16q0 -91 -77 -107v-3q16 0 35 -3.5t45.5 -14t44 -35t17.5 -60.5v-29
q0 -29 6.5 -40.5t23.5 -11.5q24 0 24 34v81h58v-81q0 -37 -23 -65.5t-78 -28.5q-113 0 -113 111v30q0 86 -141 86h-48v-96q0 -31 9.5 -43t39.5 -12h40v-60z" />
    <glyph glyph-name="afii10110" unicode="&#x45e;" horiz-adv-x="630" 
d="M335 511q-84 0 -132.5 30.5t-48.5 72.5q0 28 21 43t47 15q21 0 39 -10t18 -31q0 -20 -9 -29.5t-18 -12.5t-9 -7t6.5 -9t29 -10t55.5 -5q29 0 51 4t31.5 9t9.5 11q0 4 -9 7t-18 12t-9 28q0 20 17.5 31.5t39.5 11.5q30 0 49 -14.5t19 -43.5q0 -39 -45 -71t-135 -32zM10 458
h285v-60h-51q-40 0 -40 -17q0 -20 10 -40l116 -233h4l119 234q13 28 13 39t-7 14t-28 3h-58v60h223v-60h-13q-27 0 -38.5 -11t-31.5 -50l-238 -461q-55 -107 -153 -107q-50 0 -85.5 32t-35.5 79q0 38 20 59.5t55 21.5q30 0 50 -16t20 -42q0 -43 -48 -62q6 -16 36 -16
q51 0 92 79l52 98l-178 349q-15 30 -27 38.5t-43 8.5h-20v60z" />
    <glyph glyph-name="afii10193" unicode="&#x45f;" horiz-adv-x="726" 
d="M42 458h280v-60h-40q-30 0 -39.5 -12t-9.5 -43v-283h255v283q0 31 -9.5 43t-39.5 12h-40v60h280v-60h-40q-30 0 -39.5 -12t-9.5 -43v-228q0 -31 9.5 -43t39.5 -12h40v-60h-180q-109 0 -109 -96v-47h-59v47q0 96 -109 96h-180v60h40q30 0 39.5 12t9.5 43v228q0 31 -9.5 43
t-39.5 12h-40v60z" />
    <glyph glyph-name="afii10146" unicode="&#x462;" horiz-adv-x="949" 
d="M438 560v-179h202q76 0 136 -17.5t100 -61.5t40 -110q0 -192 -269 -192h-445v70h59q61 0 61 51v439h-93q-68 0 -100 -35t-32 -92v-78h-70v275h295v61h116v-61h295v-205h-70v8q0 57 -32 92t-100 35h-93zM438 311v-241h209q150 0 150 123q0 58 -44 88t-113 30h-202z" />
    <glyph glyph-name="afii10194" unicode="&#x463;" horiz-adv-x="733" 
d="M364 211v-151h128q57 0 80.5 19.5t23.5 56.5q0 42 -22.5 58.5t-81.5 16.5h-128zM262 115v283h-67q-109 0 -109 -96v-47h-58v203h234v22q0 30 -9.5 42.5t-39.5 12.5h-40v60h280v-60h-40q-30 0 -39.5 -12.5t-9.5 -42.5v-22h223v-139h-58q0 30 -25.5 54.5t-71.5 24.5h-68
v-128h135q208 0 208 -135q0 -61 -50 -98t-160 -37h-324v60h40q30 0 39.5 12t9.5 43z" />
    <glyph glyph-name="afii10050" unicode="&#x490;" horiz-adv-x="708" 
d="M402 0h-356v70h59q61 0 61 51v431q0 24 -12.5 37.5t-47.5 13.5h-60v70h490q43 0 61 17.5t18 55.5v61h70v-134v-157h-70v36q0 26 -10 38.5t-36 12.5h-287v-482q0 -51 60 -51h60v-70z" />
    <glyph glyph-name="afii10098" unicode="&#x491;" horiz-adv-x="540" 
d="M322 0h-280v60h40q30 0 39.5 12t9.5 43v228q0 31 -9.5 43t-39.5 12h-40v60h365q24 0 39 15.5t15 38.5v54h58v-218h-58v13q0 22 -8 29.5t-29 7.5h-191v-283q0 -31 9.5 -43t39.5 -12h40v-60z" />
    <glyph glyph-name="endash" unicode="&#x2013;" horiz-adv-x="700" 
d="M48 336h604v-49h-604v49z" />
    <glyph glyph-name="emdash" unicode="&#x2014;" horiz-adv-x="1196" 
d="M72 197v50h1052v-50h-1052z" />
    <glyph glyph-name="quoteleft" unicode="&#x2018;" horiz-adv-x="250" 
d="M145 691l31 -38q-20 -19 -41 -49t-21 -43q0 -11 23 -11q28 0 44.5 -19t16.5 -40q0 -63 -74 -63t-74 88q0 89 95 175z" />
    <glyph glyph-name="quoteright" unicode="&#x2019;" horiz-adv-x="250" 
d="M103 424l-33 35q25 21 44.5 49.5t19.5 45.5q0 7 -4.5 9t-18.5 2q-28 0 -44.5 19t-16.5 40q0 63 74 63q41 0 57.5 -26t16.5 -61q0 -90 -95 -176z" />
    <glyph glyph-name="quotesinglbase" unicode="&#x201a;" horiz-adv-x="250" 
d="M103 -143l-33 35q25 21 44.5 49.5t19.5 45.5q0 7 -4.5 9t-18.5 2q-28 0 -44.5 19t-16.5 40q0 63 74 63q41 0 57.5 -26t16.5 -61q0 -90 -95 -176z" />
    <glyph glyph-name="quotedblleft" unicode="&#x201c;" horiz-adv-x="500" 
d="M395 691l30 -38q-20 -19 -41 -49t-21 -43q0 -11 23 -11q28 0 45 -19t17 -40q0 -63 -75 -63q-74 0 -74 88q0 89 96 175zM146 691l30 -38q-20 -19 -41 -49t-21 -43q0 -11 23 -11q28 0 45 -19t17 -40q0 -25 -16.5 -44t-58.5 -19q-74 0 -74 88q0 89 96 175z" />
    <glyph glyph-name="quotedblright" unicode="&#x201d;" horiz-adv-x="500" 
d="M103 422l-33 35q25 21 44.5 49.5t19.5 45.5q0 7 -4.5 9t-18.5 2q-28 0 -44.5 19t-16.5 40q0 63 74 63q41 0 57.5 -26t16.5 -61q0 -90 -95 -176zM351 422l-33 35q25 21 44.5 49.5t19.5 45.5q0 7 -4.5 9t-18.5 2q-28 0 -44.5 19t-16.5 40q0 63 74 63q41 0 57.5 -26
t16.5 -61q0 -90 -95 -176z" />
    <glyph glyph-name="quotedblbase" unicode="&#x201e;" horiz-adv-x="500" 
d="M103 -143l-33 35q25 21 44.5 49.5t19.5 45.5q0 7 -4.5 9t-18.5 2q-28 0 -44.5 19t-16.5 40q0 63 74 63q41 0 57.5 -26t16.5 -61q0 -90 -95 -176zM351 -143l-33 35q25 21 44.5 49.5t19.5 45.5q0 7 -4.5 9t-18.5 2q-28 0 -44.5 19t-16.5 40q0 63 74 63q41 0 57.5 -26
t16.5 -61q0 -90 -95 -176z" />
    <glyph glyph-name="dagger" unicode="&#x2020;" horiz-adv-x="600" 
d="M277 -156v167q0 69 -1.5 106.5t-12 94.5t-31.5 101q29 35 45 95h-49q-32 0 -70.5 -19.5t-63.5 -19.5t-40 18.5t-15 41.5q0 29 18.5 44.5t36.5 15.5q20 0 60 -20.5t74 -20.5h49v38q0 34 -20 85.5t-20 71.5q0 18 15.5 36.5t44.5 18.5t44.5 -18.5t15.5 -36.5
q0 -20 -20 -71.5t-20 -85.5v-38h49q34 0 74 20.5t60 20.5q18 0 36.5 -15.5t18.5 -44.5q0 -23 -15 -41.5t-40 -18.5t-63.5 19.5t-70.5 19.5h-49q16 -60 45 -95q-21 -44 -31.5 -101t-12 -94.5t-1.5 -106.5v-167h-40z" />
    <glyph glyph-name="daggerdbl" unicode="&#x2021;" horiz-adv-x="600" 
d="M297 703q29 0 44.5 -18.5t15.5 -36.5q0 -20 -20 -71.5t-20 -85.5v-38h49q34 0 74 20.5t60 20.5q18 0 36.5 -15.5t18.5 -44.5q0 -23 -15 -41.5t-40 -18.5t-63.5 19.5t-70.5 19.5h-49q0 -85 38 -137q-38 -52 -38 -137h49q32 0 70.5 19.5t63.5 19.5t40 -18.5t15 -41.5
q0 -29 -18.5 -44.5t-36.5 -15.5q-20 0 -60 20.5t-74 20.5h-49v-38q0 -34 20 -85.5t20 -71.5q0 -18 -15.5 -36.5t-44.5 -18.5t-44.5 18.5t-15.5 36.5q0 20 20 71.5t20 85.5v38h-49q-34 0 -74 -20.5t-60 -20.5q-18 0 -36.5 15.5t-18.5 44.5q0 23 15 41.5t40 18.5t63.5 -19.5
t70.5 -19.5h49q0 85 -38 137q38 52 38 137h-49q-32 0 -70.5 -19.5t-63.5 -19.5t-40 18.5t-15 41.5q0 29 18.5 44.5t36.5 15.5q20 0 60 -20.5t74 -20.5h49v38q0 34 -20 85.5t-20 71.5q0 18 15.5 36.5t44.5 18.5z" />
    <glyph glyph-name="bullet" unicode="&#x2022;" horiz-adv-x="400" 
d="M100 312q0 40 32.5 68t78.5 28t78.5 -28t32.5 -68t-32 -68t-79 -28q-46 0 -78.5 27.5t-32.5 68.5z" />
    <glyph glyph-name="ellipsis" unicode="&#x2026;" horiz-adv-x="720" 
d="M50 47q0 28 20 44t50 16t50 -16t20 -44t-20 -44t-50 -16t-50 16t-20 44zM290 47q0 28 20 44t50 16t50 -16t20 -44t-20 -44t-50 -16t-50 16t-20 44zM530 47q0 28 20 44t50 16t50 -16t20 -44t-20 -44t-50 -16t-50 16t-20 44z" />
    <glyph glyph-name="perthousand" unicode="&#x2030;" horiz-adv-x="1421" 
d="M92 510q0 73 49.5 124.5t117.5 51.5q58 0 100 -36q86 -47 191 -47q110 0 181 64l21 19h66v-22l-534 -664h-82l462 577q-59 -21 -135 -21q-56 0 -118 26q14 -31 14 -72q0 -72 -48.5 -123.5t-117.5 -51.5q-68 0 -117.5 51.5t-49.5 123.5zM167 510q0 -69 25.5 -103.5
t66.5 -34.5t66.5 34.5t25.5 103.5t-25.5 103.5t-66.5 34.5t-66.5 -34.5t-25.5 -103.5zM673 163q0 -69 26 -103.5t66 -34.5q41 0 66.5 34.5t25.5 103.5t-25.5 103.5t-66.5 34.5q-40 0 -66 -35t-26 -103zM599 163q0 72 49 123.5t117 51.5q69 0 117.5 -51.5t48.5 -123.5
q0 -73 -48.5 -124t-117.5 -51q-68 0 -117 51t-49 124zM1091 163q0 -69 26 -103.5t67 -34.5t66 34.5t25 103.5t-25 103.5t-66 34.5t-67 -34.5t-26 -103.5zM1017 163q0 72 49 123.5t118 51.5q68 0 117 -51.5t49 -123.5q0 -73 -49 -124t-117 -51q-69 0 -118 51t-49 124z" />
    <glyph glyph-name="guilsinglleft" unicode="&#x2039;" horiz-adv-x="556" 
d="M422 412l-143 -192l138 -189l-40 -22l-244 212l248 216z" />
    <glyph glyph-name="guilsinglright" unicode="&#x203a;" horiz-adv-x="556" 
d="M133 33l143 192l-136 189l40 22l242 -212l-247 -216z" />
    <glyph glyph-name="fraction" unicode="&#x2044;" horiz-adv-x="714" 
d="M668 694l-579 -745l-43 26l580 745z" />
    <glyph glyph-name="fraction" unicode="&#x2215;" horiz-adv-x="714" 
d="M668 694l-579 -745l-43 26l580 745z" />
    <glyph glyph-name="Euro" unicode="&#x20ac;" 
d="M604 537h-22q-9 56 -51.5 82.5t-107.5 26.5q-101 0 -148.5 -62.5t-61.5 -178.5h326l-19 -40h-310v-31v-32h280l-19 -39h-258q10 -114 64 -176.5t146 -62.5q61 0 105 27t54 84h22l-7 -87q-58 -63 -196 -63q-268 0 -299 278h-78l19 39h53q-1 9 -1 33q0 22 1 30h-72l19 40
h57q19 136 89 208.5t212 72.5q139 0 196 -59z" />
    <glyph glyph-name="afii61352" unicode="&#x2116;" horiz-adv-x="1346" 
d="M896 0h-93l-431 545v-404q0 -70 -44 -114.5t-120 -44.5q-78 0 -133 43.5t-55 113.5q0 38 24 63t64 25q74 0 74 -73q0 -23 -14.5 -41t-37.5 -25q0 -17 20 -29t51 -12q44 0 72.5 25t28.5 68v412q0 24 -12.5 37.5t-47.5 13.5h-60v70h226l418 -525v352q0 91 43 141t120 50
q66 0 108 -26t42 -69q0 -29 -15.5 -54.5t-50.5 -25.5q-39 0 -56 19.5t-17 35.5q0 18 9 29t18.5 15t9.5 6q0 13 -54 13q-87 0 -87 -135v-499zM1003 104h289v-70h-289v70zM1298 303q0 -63 -45 -101t-106 -38q-62 0 -106.5 38t-44.5 101q0 62 45 101t106 39t106 -39t45 -101z
M1221 304q0 49 -15.5 74t-58.5 25t-58.5 -25t-15.5 -74q0 -50 15.5 -75t58.5 -25q42 0 58 24.5t16 75.5z" />
    <glyph glyph-name="trademark" unicode="&#x2122;" horiz-adv-x="1078" 
d="M32 738h391v-153h-35q0 64 -30 91t-60 27h-31v-251q0 -19 11 -29.5t30 -10.5h30v-35h-221v35h33q17 0 27.5 10.5t10.5 29.5v251h-31q-30 0 -60 -27t-30 -91h-35v153zM641 738l117 -258l109 258h178v-35h-54q-6 0 -10.5 -5t-4.5 -10v-236q0 -19 10.5 -29.5t28.5 -10.5h30
v-35h-219v35h33q17 0 27.5 10.5t10.5 29.5v239h-6l-131 -314h-32l-143 314h-4v-239q0 -17 10.5 -28.5t27.5 -11.5h31v-35h-179v35h35q15 0 24.5 11t9.5 29v236q0 5 -4.5 10t-11.5 5h-53v35h170z" />
    <glyph glyph-name="fi" unicode="&#xfb01;" horiz-adv-x="690" 
d="M361 458h212v-343q0 -31 9.5 -43t39.5 -12h40v-60h-280v60h40q30 0 39.5 12t9.5 43v228q0 31 -9.5 43t-39.5 12h-189v-283q0 -31 9.5 -43t39.5 -12h40v-60h-280v60h40q30 0 39.5 12t9.5 43v283h-89v60h89v62q0 79 45.5 124t124.5 45q55 0 95.5 -32t40.5 -74
q0 -32 -16.5 -53t-49.5 -21q-25 0 -43.5 18t-18.5 42q0 14 9.5 24.5t18.5 16.5t9 8q0 5 -13 9t-32 4q-33 0 -50.5 -18t-17.5 -50v-105h128z" />
    <glyph glyph-name="fl" unicode="&#xfb02;" horiz-adv-x="669" 
d="M322 458v-60h-89v-283q0 -31 9.5 -43t39.5 -12h40v-60h-280v60h40q30 0 39.5 12t9.5 43v283h-89v60h89v59q0 169 149 169h272v-571q0 -31 9.5 -43t39.5 -12h40v-60h-280v60h40q30 0 39.5 12t9.5 43v456q0 30 -8 42.5t-33 12.5q-9 0 -24 -6.5t-24 -6.5q-14 0 -33.5 6.5
t-26.5 6.5q-33 0 -51.5 -17t-18.5 -49q0 -10 1 -30.5t1 -27.5v-44h89z" />
    <glyph glyph-name="nbspace" horiz-adv-x="360" 
 />
    <glyph glyph-name="halfspace" horiz-adv-x="180" 
 />
    <glyph glyph-name="hyphenminus" horiz-adv-x="397" 
d="M69 229v68h259v-68h-259z" />
    </font>
</defs>
</svg>
