<?xml version="1.0" encoding="utf-8"?>
<!-- Generator: Adobe Illustrator 19.1.0, SVG Export Plug-In . SVG Version: 6.00 Build 0)  -->
<svg version="1.1" id="Isolation_Mode" xmlns="http://www.w3.org/2000/svg" xmlns:xlink="http://www.w3.org/1999/xlink" x="0px"
	 y="0px" viewBox="0 0 44 44" style="enable-background:new 0 0 44 44;" xml:space="preserve">
<style type="text/css">
	.st0{fill:#FF639B;}
	.st1{fill:none;stroke:#FFFFFF;stroke-width:5;stroke-linecap:round;stroke-miterlimit:10;}
	.st2{fill:#FFFFFF;}
	.st3{fill:none;stroke:#FFFFFF;stroke-width:8;stroke-linecap:round;stroke-miterlimit:10;}
</style>
<g>
	<g>
		<path class="st0" d="M20.6,0c5-0.3,10,1.1,14.1,4c4.4,3.1,7.5,7.8,8.7,13.1c1.2,5.3,0.4,11.1-2.4,15.8c-2.6,4.5-6.8,8-11.6,9.7
			c-5.6,2-11.9,1.7-17.2-1C6.8,39,2.6,34.1,0.9,28.3c-1.7-5.7-1-12.1,2-17.3C6.5,4.7,13.4,0.4,20.6,0z"/>
	</g>
</g>
<polyline class="st1" points="32.2,20.4 28.8,18 32.2,15.7 "/>
<g>
	<path class="st2" d="M13.8,23l-5.4-5.6c-1.3-1.3-1.2-3.4,0.1-4.6c1.3-1.3,3.4-1.2,4.6,0.1l0.8,0.8l0.8-0.8c1.3-1.3,3.3-1.3,4.6-0.1
		c1.3,1.3,1.3,3.3,0.1,4.6L13.8,23z"/>
</g>
<polyline class="st3" points="22,33 22,33 22,33 "/>
</svg>
