<?xml version="1.0" encoding="utf-8"?>
<!-- Generator: Adobe Illustrator 19.1.0, SVG Export Plug-In . SVG Version: 6.00 Build 0)  -->
<svg version="1.1" id="Isolation_Mode" xmlns="http://www.w3.org/2000/svg" xmlns:xlink="http://www.w3.org/1999/xlink" x="0px"
	 y="0px" viewBox="0 0 44 44" style="enable-background:new 0 0 44 44;" xml:space="preserve">
<style type="text/css">
	.st0{fill:#00ABE8;}
	.st1{fill:none;stroke:#FFFFFF;stroke-width:4;stroke-linecap:round;stroke-miterlimit:10;}
	.st2{fill:none;stroke:#FFFFFF;stroke-width:5;stroke-linecap:round;stroke-miterlimit:10;}
</style>
<g>
	<g>
		<path class="st0" d="M20.6,0c5-0.3,10,1.1,14.1,4c4.4,3.1,7.5,7.8,8.7,13.1c1.2,5.3,0.4,11.1-2.4,15.8c-2.6,4.5-6.8,8-11.6,9.7
			c-5.6,2-11.9,1.7-17.2-1C6.8,39,2.6,34.1,0.9,28.3c-1.7-5.7-1-12.1,2-17.3C6.5,4.7,13.4,0.4,20.6,0z"/>
	</g>
</g>
<g>
	<g>
		<path class="st1" d="M17.8,15.7c-0.5,0.9-1.4,1.6-2.4,2c-1.1,0.4-2.4,0.3-3.5-0.2c-0.8-0.4-1.4-1-1.9-1.8"/>
	</g>
</g>
<g>
	<g>
		<path class="st1" d="M34.7,15.7c-0.5,0.9-1.4,1.6-2.4,2c-1.1,0.4-2.4,0.3-3.5-0.2c-0.8-0.4-1.4-1-1.9-1.8"/>
	</g>
</g>
<path class="st2" d="M13,32.7c1.1,0,2.4-3.8,3.9-3.8c1.2,0,2.5,3.8,3.9,3.8c1.5,0,2.8-3.8,4-3.8c1.5,0,2.9,3.8,4,3.8
	c2.6,0,2-3.8,4-3.8"/>
</svg>
