<?xml version="1.0" encoding="utf-8"?>
<!-- Generator: Adobe Illustrator 19.1.0, SVG Export Plug-In . SVG Version: 6.00 Build 0)  -->
<svg version="1.1" id="Слой_1" xmlns="http://www.w3.org/2000/svg" xmlns:xlink="http://www.w3.org/1999/xlink" x="0px" y="0px"
	 viewBox="0 0 89.2 140.9" style="enable-background:new 0 0 89.2 140.9;" xml:space="preserve">
<style type="text/css">
	.st0{fill:#00AAE7;}
	.st1{fill:#F47B20;}
</style>
<g>
	<path class="st0" d="M24.3,64.3c-6-8.4-9.5-18.6-10-28.3c0-0.7-0.1-1.4-0.1-2.1v0v0c0-8.1,2.4-15.5,6.3-21.1
		c2.2-3.7,7.1-7.5,13.4-10c-2.8,1.1-5.6,2.4-8.2,4.1v0C-19.6,34.5,5,105.7,23.5,127.7c0.3,0.3,2.3,2.5,2.9,3.1
		c11.6,11.4,28.3,13.3,37.2,4.3c8.7-8.9,6.8-24.9-4.2-36.3C48,86.4,35,80,24.3,64.3"/>
	<path class="st0" d="M47.1,0c-0.7,0-1.4,0.1-2.1,0.1c3.8-0.2,7,0.4,9.2,1.7c0.4,0.2,0.8,0.5,1.2,0.7c1.8,1.2,3.3,2.9,4.4,4.8
		c1.8,2.9,2.6,6.4,2.6,10.4c0,0.1,0,0.2,0,0.3v0c-0.1,7.9-3.6,17.2-10.5,25c-0.2,0.2-0.4,0.4-0.5,0.6c0,0,0,0,0,0
		c-0.6,0.7-1.1,1.4-1.7,2.1c-6.8,9.8-5.4,22.7,3.3,28.7c8.7,6,21.2,2.9,28.1-6.9c0.3-0.5,0.7-1,1-1.5C101.6,35.3,78.8-1.3,47.1,0"/>
	<path class="st1" d="M30.5,55.1c1-16.3,11.5-29,23.6-28.3c2.2,0.1,4.4,0.8,6.4,1.8c1.3-3.6,1.9-7.2,1.9-10.6v0v-0.3
		c0-3.9-0.9-7.5-2.6-10.4v0c-1.1-1.9-2.5-3.5-4.4-4.8c-0.4-0.3-0.8-0.5-1.2-0.7c-4.1-2.4-11.6-2.4-19.4,0.5
		c-6.7,2.5-11.9,6.4-14.2,10.3c-3.9,5.6-6.3,13-6.3,21.1c0,0.7,0,1.4,0.1,2.1c0.5,9.8,4,20,10,28.4c4.8,7.1,10.2,12.4,15.6,17.1
		C33.7,75.9,29.8,66.1,30.5,55.1"/>
</g>
</svg>
