<?xml version="1.0" encoding="utf-8"?>
<!-- Generator: Adobe Illustrator 19.1.0, SVG Export Plug-In . SVG Version: 6.00 Build 0)  -->
<svg version="1.1" id="Слой_1" xmlns="http://www.w3.org/2000/svg" xmlns:xlink="http://www.w3.org/1999/xlink" x="0px" y="0px"
	 viewBox="0 0 341.5 140.9" style="enable-background:new 0 0 341.5 140.9;" xml:space="preserve">
<style type="text/css">
	.st0{fill:#00AAE7;}
	.st1{fill:#F47B20;}
</style>
<g>
	<path class="st0" d="M24.3,64.3c-6-8.4-9.5-18.6-10-28.3c0-0.7-0.1-1.4-0.1-2.1v0v0c0-8.1,2.4-15.5,6.3-21.1
		c2.2-3.7,7.1-7.5,13.4-10c-2.8,1.1-5.6,2.4-8.2,4.1v0C-19.6,34.5,5,105.7,23.5,127.7c0.3,0.3,2.3,2.5,2.9,3.1
		c11.6,11.4,28.3,13.3,37.2,4.3c8.7-8.9,6.8-24.9-4.2-36.3C48,86.4,35,80,24.3,64.3"/>
	<path class="st0" d="M47.1,0c-0.7,0-1.4,0.1-2.1,0.1c3.8-0.2,7,0.4,9.2,1.7c0.4,0.2,0.8,0.5,1.2,0.7c1.8,1.2,3.3,2.9,4.4,4.8
		c1.8,2.9,2.6,6.4,2.6,10.4c0,0.1,0,0.2,0,0.3v0c-0.1,7.9-3.6,17.2-10.5,25c-0.2,0.2-0.4,0.4-0.5,0.6c0,0,0,0,0,0
		c-0.6,0.7-1.1,1.4-1.7,2.1c-6.8,9.8-5.4,22.7,3.3,28.7c8.7,6,21.2,2.9,28.1-6.9c0.3-0.5,0.7-1,1-1.5C101.6,35.3,78.8-1.3,47.1,0"/>
	<path class="st1" d="M30.5,55.1c1-16.3,11.5-29,23.6-28.3c2.2,0.1,4.4,0.8,6.4,1.8c1.3-3.6,1.9-7.2,1.9-10.6v0v-0.3
		c0-3.9-0.9-7.5-2.6-10.4v0c-1.1-1.9-2.5-3.5-4.4-4.8c-0.4-0.3-0.8-0.5-1.2-0.7c-4.1-2.4-11.6-2.4-19.4,0.5
		c-6.7,2.5-11.9,6.4-14.2,10.3c-3.9,5.6-6.3,13-6.3,21.1c0,0.7,0,1.4,0.1,2.1c0.5,9.8,4,20,10,28.4c4.8,7.1,10.2,12.4,15.6,17.1
		C33.7,75.9,29.8,66.1,30.5,55.1"/>
	<path d="M131.6,100.6c2.6,0,5.4-2,5.4-6.8c0-4.9-2.8-6.9-5.4-6.9c-2.6,0-5.4,2-5.4,6.9C126.1,98.6,128.9,100.6,131.6,100.6
		 M131.6,82.9c6.7,0,11.6,3.8,11.6,10.8c0,7-4.9,10.8-11.6,10.8c-6.7,0-11.6-3.8-11.6-10.8C120,86.7,124.9,82.9,131.6,82.9"/>
	<path d="M186.9,83.2h-19c-0.3,0-0.5,0.2-0.5,0.4v3.2c0,0.2,0.2,0.4,0.5,0.4h6.5v16.5c0,0.2,0.2,0.4,0.5,0.4h4.9
		c0.3,0,0.5-0.2,0.5-0.4V87.3h6.6c0.3,0,0.5-0.2,0.5-0.4v-3.2C187.4,83.4,187.2,83.2,186.9,83.2"/>
	<path d="M164.2,104.2c0.3,0,0.5-0.2,0.5-0.4l0-3.2c0-0.2-0.2-0.4-0.5-0.4c-0.1,0-3.7,0-4.5,0c-4.1,0-6.9-2.5-6.9-6.3
		c0-4.2,3-6.5,7-6.5h4.1c0.2,0,0.5-0.2,0.5-0.4v-3.2c0-0.2-0.2-0.4-0.5-0.4h-5c-8,0-12.2,4.7-12.2,10.3c0,5.6,4,10.7,12.1,10.7
		H164.2z"/>
	<path d="M285.9,103.8l-9.1-10.6l7.1-8.5h0c0,0,0.2-0.2,0.4-0.4l0.5-0.6c0.1-0.2,0-0.4-0.3-0.4H279c-0.3,0-0.5,0.1-0.7,0.3l-7,9.3
		h-0.2v-8.1v-1c0-0.2-0.2-0.4-0.4-0.4h-5c-0.3,0-0.5,0.2-0.5,0.4v20.1c0,0.2,0.2,0.4,0.5,0.4h5c0.3,0,0.5-0.2,0.5-0.4v-9.6h0.2
		l7.3,9.7c0.2,0.2,0.4,0.3,0.7,0.3h6.3C286,104.2,286.1,104,285.9,103.8"/>
	<path d="M106.7,89.1h-2.8v-8.8h2.8c3.6,0,5.2,1.9,5.2,4.3C111.9,86.7,110.4,89.1,106.7,89.1 M106.7,75.8h-6.8c-1.1,0.2-2,1-2.1,2.1
		v25.9c0,0.2,0.2,0.4,0.5,0.4h5.2c0.3,0,0.5-0.2,0.5-0.4V93.6h3.9c7.8,0,10.6-5.1,10.6-8.8C118.4,82.9,117.7,75.8,106.7,75.8"/>
	<path d="M234.3,83.2h-13.7h-1.4c-1.4,0-2.6,1.1-2.6,2.4v8.1c0,4.1-1.7,6.4-4.6,6.4h-0.2c-0.2,0-0.5,0.2-0.5,0.4v3v0.2
		c0,0.2,0.2,0.4,0.4,0.4c0.3,0,0.7,0,1.3,0c3.1,0,8.8-1.4,8.8-10.5v-6.4h6.9v16.5c0,0.2,0.2,0.4,0.5,0.4h5c0.3,0,0.5-0.2,0.5-0.4
		V83.7C234.8,83.4,234.6,83.2,234.3,83.2"/>
	<path d="M341.5,87.1v-1.5c0-1.3-1.2-2.4-2.6-2.4h-4.7c-0.2,0-0.4,0.1-0.6,0.4l-6.5,9.5l-6.5-9.5v0c-0.3-0.4-0.6-0.4-0.9-0.4h-3.6
		h-0.7c-1.4,0-2.6,1.1-2.6,2.4v9.1v9.1c0,0.2,0.2,0.4,0.5,0.4h5c0.3,0,0.5-0.2,0.5-0.4l0-11.5l-0.1-4.3h0.2l7.6,11.4
		c0.4,0.6,1.1,0.6,1.5,0l7.6-11.4h0.2l-0.1,4.3v11.5c0,0.2,0.2,0.4,0.5,0.4h5c0.3,0,0.5-0.2,0.5-0.4V87.1z"/>
	<path d="M297.5,100.6c2.6,0,5.4-2,5.4-6.8c0-4.9-2.8-6.9-5.4-6.9c-2.6,0-5.4,2-5.4,6.9C292.1,98.6,294.9,100.6,297.5,100.6
		 M297.5,82.9c6.7,0,11.6,3.8,11.6,10.8c0,7-4.9,10.8-11.6,10.8c-6.7,0-11.6-3.8-11.6-10.8C285.9,86.7,290.8,82.9,297.5,82.9"/>
	<path d="M199.9,86.7c2.2,0,4.7,1.4,4.6,4.9h-9.2C195.4,88.9,197.3,86.7,199.9,86.7 M207.7,100.1h-4.9c-4,0-7.3-2.1-7.5-4.7h12.5
		c1.4,0,2.6-1.1,2.6-2.4v-0.5c-0.3-3.3-1.7-9.6-10.1-9.6c-6,0-11.1,4.1-11.1,10.8c0,7.4,6.7,10.5,13.4,10.5h5.1
		c0.2,0,0.5-0.2,0.5-0.4v-3.3C208.1,100.3,207.9,100.1,207.7,100.1"/>
	<path d="M249.8,86.7c2.2,0,4.7,1.4,4.7,4.9h-9.2C245.3,88.9,247.2,86.7,249.8,86.7 M258,99.6c0,0-3,0.3-5.3,0.3
		c-4,0-7.3-1.8-7.5-4.5h12.5c1.4,0,2.5-1.1,2.6-2.4c-0.2-3.1-1.3-10.1-10.1-10.1c-6,0-11.1,4.1-11.1,10.8c0,7.4,6.7,10.5,13.4,10.5
		c2.6,0,5.5-0.3,5.5-0.3c0.3,0,0.5-0.2,0.5-0.4V100C258.5,99.8,258.3,99.6,258,99.6"/>
</g>
</svg>
