<?xml version="1.0" encoding="utf-8"?>
<!-- Generator: Adobe Illustrator 19.1.0, SVG Export Plug-In . SVG Version: 6.00 Build 0)  -->
<svg version="1.1" id="Слой_1" xmlns="http://www.w3.org/2000/svg" xmlns:xlink="http://www.w3.org/1999/xlink" x="0px" y="0px"
	 viewBox="-126 351 341.5 140.9" style="enable-background:new -126 351 341.5 140.9;" xml:space="preserve">
<style type="text/css">
	.st0{fill:#00AAE7;}
	.st1{fill:#F47B20;}
	.st2{fill:#FFFFFF;}
</style>
<path class="st0" d="M-101.7,415.3c-6-8.4-9.5-18.6-10-28.3c0-0.7-0.1-1.4-0.1-2.1l0,0l0,0c0-8.1,2.4-15.5,6.3-21.1
	c2.2-3.7,7.1-7.5,13.4-10c-2.8,1.1-5.6,2.4-8.2,4.1l0,0c-45.3,27.6-20.7,98.8-2.2,120.8c0.3,0.3,2.3,2.5,2.9,3.1
	c11.6,11.4,28.3,13.3,37.2,4.3c8.7-8.9,6.8-24.9-4.2-36.3C-78,437.4-91,431-101.7,415.3"/>
<path class="st0" d="M-78.9,351c-0.7,0-1.4,0.1-2.1,0.1c3.8-0.2,7,0.4,9.2,1.7c0.4,0.2,0.8,0.5,1.2,0.7c1.8,1.2,3.3,2.9,4.4,4.8
	c1.8,2.9,2.6,6.4,2.6,10.4c0,0.1,0,0.2,0,0.3l0,0c-0.1,7.9-3.6,17.2-10.5,25c-0.2,0.2-0.4,0.4-0.5,0.6l0,0c-0.6,0.7-1.1,1.4-1.7,2.1
	c-6.8,9.8-5.4,22.7,3.3,28.7s21.2,2.9,28.1-6.9c0.3-0.5,0.7-1,1-1.5C-24.4,386.3-47.2,349.7-78.9,351"/>
<path class="st1" d="M-95.5,406.1c1-16.3,11.5-29,23.6-28.3c2.2,0.1,4.4,0.8,6.4,1.8c1.3-3.6,1.9-7.2,1.9-10.6l0,0v-0.3
	c0-3.9-0.9-7.5-2.6-10.4l0,0c-1.1-1.9-2.5-3.5-4.4-4.8c-0.4-0.3-0.8-0.5-1.2-0.7c-4.1-2.4-11.6-2.4-19.4,0.5
	c-6.7,2.5-11.9,6.4-14.2,10.3c-3.9,5.6-6.3,13-6.3,21.1c0,0.7,0,1.4,0.1,2.1c0.5,9.8,4,20,10,28.4c4.8,7.1,10.2,12.4,15.6,17.1
	C-92.3,426.9-96.2,417.1-95.5,406.1"/>
<path class="st2" d="M5.6,451.6c2.6,0,5.4-2,5.4-6.8c0-4.9-2.8-6.9-5.4-6.9c-2.6,0-5.4,2-5.4,6.9C0.1,449.6,2.9,451.6,5.6,451.6
	 M5.6,433.9c6.7,0,11.6,3.8,11.6,10.8s-4.9,10.8-11.6,10.8c-6.7,0-11.6-3.8-11.6-10.8C-6,437.7-1.1,433.9,5.6,433.9"/>
<path class="st2" d="M60.9,434.2h-19c-0.3,0-0.5,0.2-0.5,0.4v3.2c0,0.2,0.2,0.4,0.5,0.4h6.5v16.5c0,0.2,0.2,0.4,0.5,0.4h4.9
	c0.3,0,0.5-0.2,0.5-0.4v-16.4h6.6c0.3,0,0.5-0.2,0.5-0.4v-3.2C61.4,434.4,61.2,434.2,60.9,434.2"/>
<path class="st2" d="M38.2,455.2c0.3,0,0.5-0.2,0.5-0.4v-3.2c0-0.2-0.2-0.4-0.5-0.4c-0.1,0-3.7,0-4.5,0c-4.1,0-6.9-2.5-6.9-6.3
	c0-4.2,3-6.5,7-6.5h4.1c0.2,0,0.5-0.2,0.5-0.4v-3.2c0-0.2-0.2-0.4-0.5-0.4h-5c-8,0-12.2,4.7-12.2,10.3s4,10.7,12.1,10.7h5.4V455.2z"
	/>
<path class="st2" d="M159.9,454.8l-9.1-10.6l7.1-8.5l0,0c0,0,0.2-0.2,0.4-0.4l0.5-0.6c0.1-0.2,0-0.4-0.3-0.4H153
	c-0.3,0-0.5,0.1-0.7,0.3l-7,9.3h-0.2v-8.1v-1c0-0.2-0.2-0.4-0.4-0.4h-5c-0.3,0-0.5,0.2-0.5,0.4v20.1c0,0.2,0.2,0.4,0.5,0.4h5
	c0.3,0,0.5-0.2,0.5-0.4v-9.6h0.2l7.3,9.7c0.2,0.2,0.4,0.3,0.7,0.3h6.3C160,455.2,160.1,455,159.9,454.8"/>
<path class="st2" d="M-19.3,440.1h-2.8v-8.8h2.8c3.6,0,5.2,1.9,5.2,4.3C-14.1,437.7-15.6,440.1-19.3,440.1 M-19.3,426.8h-6.8
	c-1.1,0.2-2,1-2.1,2.1v25.9c0,0.2,0.2,0.4,0.5,0.4h5.2c0.3,0,0.5-0.2,0.5-0.4v-10.2h3.9c7.8,0,10.6-5.1,10.6-8.8
	C-7.6,433.9-8.3,426.8-19.3,426.8"/>
<path class="st2" d="M108.3,434.2H94.6h-1.4c-1.4,0-2.6,1.1-2.6,2.4v8.1c0,4.1-1.7,6.4-4.6,6.4h-0.2c-0.2,0-0.5,0.2-0.5,0.4v3v0.2
	c0,0.2,0.2,0.4,0.4,0.4c0.3,0,0.7,0,1.3,0c3.1,0,8.8-1.4,8.8-10.5v-6.4h6.9v16.5c0,0.2,0.2,0.4,0.5,0.4h5c0.3,0,0.5-0.2,0.5-0.4v-20
	C108.8,434.4,108.6,434.2,108.3,434.2"/>
<path class="st2" d="M215.5,438.1v-1.5c0-1.3-1.2-2.4-2.6-2.4h-4.7c-0.2,0-0.4,0.1-0.6,0.4l-6.5,9.5l-6.5-9.5l0,0
	c-0.3-0.4-0.6-0.4-0.9-0.4h-3.6h-0.7c-1.4,0-2.6,1.1-2.6,2.4v9.1v9.1c0,0.2,0.2,0.4,0.5,0.4h5c0.3,0,0.5-0.2,0.5-0.4v-11.5l-0.1-4.3
	h0.2l7.6,11.4c0.4,0.6,1.1,0.6,1.5,0l7.6-11.4h0.2l-0.1,4.3v11.5c0,0.2,0.2,0.4,0.5,0.4h5c0.3,0,0.5-0.2,0.5-0.4v-16.7H215.5z"/>
<path class="st2" d="M171.5,451.6c2.6,0,5.4-2,5.4-6.8c0-4.9-2.8-6.9-5.4-6.9s-5.4,2-5.4,6.9C166.1,449.6,168.9,451.6,171.5,451.6
	 M171.5,433.9c6.7,0,11.6,3.8,11.6,10.8s-4.9,10.8-11.6,10.8s-11.6-3.8-11.6-10.8S164.8,433.9,171.5,433.9"/>
<path class="st2" d="M73.9,437.7c2.2,0,4.7,1.4,4.6,4.9h-9.2C69.4,439.9,71.3,437.7,73.9,437.7 M81.7,451.1h-4.9
	c-4,0-7.3-2.1-7.5-4.7h12.5c1.4,0,2.6-1.1,2.6-2.4v-0.5c-0.3-3.3-1.7-9.6-10.1-9.6c-6,0-11.1,4.1-11.1,10.8
	c0,7.4,6.7,10.5,13.4,10.5h5.1c0.2,0,0.5-0.2,0.5-0.4v-3.3C82.1,451.3,81.9,451.1,81.7,451.1"/>
<path class="st2" d="M123.8,437.7c2.2,0,4.7,1.4,4.7,4.9h-9.2C119.3,439.9,121.2,437.7,123.8,437.7 M132,450.6c0,0-3,0.3-5.3,0.3
	c-4,0-7.3-1.8-7.5-4.5h12.5c1.4,0,2.5-1.1,2.6-2.4c-0.2-3.1-1.3-10.1-10.1-10.1c-6,0-11.1,4.1-11.1,10.8c0,7.4,6.7,10.5,13.4,10.5
	c2.6,0,5.5-0.3,5.5-0.3c0.3,0,0.5-0.2,0.5-0.4V451C132.5,450.8,132.3,450.6,132,450.6"/>
</svg>
