<svg id="Layer_1" data-name="Layer 1" xmlns="http://www.w3.org/2000/svg" viewBox="0 0 243.63 198.72"><defs><style>.cls-1{fill:#00aae7;}.cls-2{fill:#f47b20;}</style></defs><title>rostelekom-logo</title><path d="M33.84,177.07c6.67,0,11.58,3.82,11.58,10.83s-4.91,10.82-11.58,10.82-11.59-3.81-11.59-10.82S27.15,177.07,33.84,177.07Zm0,17.67c2.59,0,5.41-2,5.41-6.85s-2.82-6.85-5.41-6.85-5.43,2-5.43,6.85S31.22,194.75,33.84,194.75Z"/><path d="M89.14,177.41h-19a0.46,0.46,0,0,0-.48.44V181a0.46,0.46,0,0,0,.48.44h6.54v16.49a0.46,0.46,0,0,0,.49.44h4.94a0.46,0.46,0,0,0,.48-0.44V181.46h6.55a0.46,0.46,0,0,0,.47-0.44v-3.17A0.46,0.46,0,0,0,89.14,177.41Z"/><path d="M66.46,198.39a0.46,0.46,0,0,0,.48-0.44l0-3.18a0.45,0.45,0,0,0-.46-0.44h-4.5c-4.12,0-6.91-2.53-6.91-6.34,0-4.2,3-6.52,7-6.52h4.05a0.48,0.48,0,0,0,.48-0.41v-3.2a0.46,0.46,0,0,0-.48-0.44H61c-8,0-12.16,4.7-12.16,10.29s4,10.69,12,10.69h5.54Z"/><path d="M188.07,197.94l-9.13-10.61,7.11-8.46h0l0.38-.44,0.51-.6c0.15-.22,0-0.42-0.28-0.42h-5.49a0.91,0.91,0,0,0-.67.26l-7,9.26h-0.22v-8.06h0v-1a0.45,0.45,0,0,0-.44-0.44h-5a0.47,0.47,0,0,0-.48.44v20.1a0.46,0.46,0,0,0,.48.44h5a0.46,0.46,0,0,0,.47-0.44v-9.6h0.22l7.3,9.71a0.82,0.82,0,0,0,.73.34h6.29C188.15,198.39,188.25,198.17,188.07,197.94Z"/><path d="M9,170H2.15A2.48,2.48,0,0,0,0,172.11v25.84a0.45,0.45,0,0,0,.46.44H5.69a0.46,0.46,0,0,0,.47-0.44V187.74H10.1c7.77,0,10.54-5.1,10.54-8.83C20.65,177.12,20,170,9,170Zm0,13.25H6.16v-8.79H9c3.55,0,5.16,1.91,5.16,4.26C14.14,180.9,12.71,183.28,9,183.28Z"/><path d="M136.55,177.41H121.46a2.49,2.49,0,0,0-2.55,2.39v8c0,4.11-1.7,6.44-4.63,6.44h-0.16a0.45,0.45,0,0,0-.46.42v3.25a0.46,0.46,0,0,0,.43.44h1.29c3.08,0,8.78-1.44,8.78-10.54v-6.38h6.93v16.49a0.45,0.45,0,0,0,.46.44h5a0.46,0.46,0,0,0,.47-0.44v-20.1A0.46,0.46,0,0,0,136.55,177.41Z"/><path d="M243.63,181.28v-1.47a2.49,2.49,0,0,0-2.55-2.39h-4.66a0.87,0.87,0,0,0-.62.39h0l-6.53,9.51-6.47-9.5h0a1,1,0,0,0-.95-0.4h-4.34a2.49,2.49,0,0,0-2.55,2.39V198a0.46,0.46,0,0,0,.47.42h5a0.46,0.46,0,0,0,.47-0.44V186.44l-0.13-4.28h0.21l7.62,11.38a0.86,0.86,0,0,0,1.48,0l7.6-11.38h0.22l-0.13,4.28v11.51a0.45,0.45,0,0,0,.47.44h5a0.45,0.45,0,0,0,.46-0.44V181.28Z"/><path d="M199.63,177.07c6.68,0,11.59,3.82,11.59,10.83s-4.91,10.82-11.59,10.82-11.58-3.81-11.58-10.82S192.95,177.07,199.63,177.07Zm0,17.67c2.61,0,5.42-2,5.42-6.85s-2.81-6.85-5.42-6.85-5.42,2-5.42,6.85S197,194.75,199.63,194.75Z"/><path d="M109.88,194.29H105c-4,0-7.32-2.06-7.49-4.73H110a2.49,2.49,0,0,0,2.55-2.38V186.7c-0.26-3.29-1.71-9.63-10.09-9.63-6,0-11.11,4.07-11.11,10.83,0,7.41,6.7,10.49,13.43,10.49h5.08a0.46,0.46,0,0,0,.47-0.42v-3.29A0.46,0.46,0,0,0,109.88,194.29Zm-7.75-13.4a4.47,4.47,0,0,1,4.65,4.9H97.54A4.71,4.71,0,0,1,102.14,180.9Z"/><path d="M160.21,193.82s-3,.26-5.31.26c-4,0-7.31-1.85-7.48-4.52h12.51a2.5,2.5,0,0,0,2.56-2.38c-0.16-3.1-1.31-10.11-10.13-10.11-6,0-11.1,4.07-11.1,10.83,0,7.41,6.67,10.49,13.42,10.49,2.62,0,5.53-.27,5.53-0.27a0.46,0.46,0,0,0,.47-0.42v-3.48A0.46,0.46,0,0,0,160.21,193.82ZM152,180.9a4.47,4.47,0,0,1,4.65,4.9h-9.24A4.71,4.71,0,0,1,152,180.9Z"/><path class="cls-1" d="M101.38,64.73a54.38,54.38,0,0,1-10-28.51c0-.7-0.05-1.4-0.05-2.12V34a37.19,37.19,0,0,1,6.36-21.27C99.88,9,104.78,5.18,111.11,2.68a44.78,44.78,0,0,0-8.22,4.13h0c-45.72,27.87-21,99.55-2.29,121.69,0.27,0.33,2.29,2.54,2.92,3.16C115.25,143.18,132,145.09,141,136c8.75-8.92,6.81-25.08-4.21-36.56C125.22,86.92,112.1,80.54,101.38,64.73Z"/><path class="cls-1" d="M124.33,0c-0.7,0-1.41.06-2.12,0.12,3.78-.2,7.06.38,9.29,1.7,0.39,0.23.78,0.46,1.16,0.73A14.51,14.51,0,0,1,137,7.41a20,20,0,0,1,2.64,10.42c0,0.1,0,.19,0,0.28h0c-0.05,8-3.67,17.35-10.61,25.18l-0.55.6h0a24.59,24.59,0,0,0-1.67,2.14c-6.88,9.89-5.38,22.81,3.33,28.87s21.35,3,28.23-6.94c0.34-.49.67-1,1-1.5C179.1,35.55,156.17-1.32,124.33,0Z"/><path class="cls-2" d="M107.57,55.4c1-16.42,11.58-29.16,23.7-28.44a17.42,17.42,0,0,1,6.47,1.79,33.08,33.08,0,0,0,2-10.63h0V17.83A20,20,0,0,0,137,7.41h0a14.63,14.63,0,0,0-4.39-4.82c-0.38-.26-0.77-0.5-1.16-0.73-4.08-2.42-11.68-2.39-19.5.49-6.76,2.48-12,6.48-14.33,10.41A37.19,37.19,0,0,0,91.31,34c0,0.71,0,1.42.06,2.12a54.5,54.5,0,0,0,10,28.56A86,86,0,0,0,117.11,81.9C110.79,76.38,106.91,66.47,107.57,55.4Z"/></svg>